<?xml version="1.0" encoding="UTF-8" standalone="no"?>
<!DOCTYPE svg PUBLIC "-//W3C//DTD SVG 1.1//EN" "http://www.w3.org/Graphics/SVG/1.1/DTD/svg11.dtd">
<svg width="100%" height="100%" viewBox="0 0 1340 442" version="1.1" xmlns="http://www.w3.org/2000/svg" xmlns:xlink="http://www.w3.org/1999/xlink" xml:space="preserve" xmlns:serif="http://www.serif.com/" style="fill-rule:evenodd;clip-rule:evenodd;stroke-linejoin:round;stroke-miterlimit:2;">
    <g transform="matrix(542.383,721.29,721.29,-542.383,25.0751,-39.4332)">
        <path d="M0.104,0.066C0.1,0.061 0.101,0.053 0.106,0.05L0.202,-0.022L0.13,-0.118C0.126,-0.123 0.127,-0.13 0.132,-0.134L0.295,-0.257C0.3,-0.26 0.307,-0.259 0.311,-0.254L0.383,-0.158L0.479,-0.231C0.484,-0.234 0.491,-0.233 0.495,-0.228L0.617,-0.066C0.621,-0.061 0.62,-0.053 0.615,-0.05L0.519,0.022L0.591,0.118C0.595,0.123 0.594,0.13 0.589,0.134L0.426,0.257C0.421,0.26 0.414,0.259 0.41,0.254L0.338,0.158L0.242,0.231C0.237,0.234 0.23,0.233 0.226,0.228L0.104,0.066Z" style="fill:url(#_Linear1);fill-rule:nonzero;"/>
    </g>
    <g transform="matrix(4.16667,0,0,4.16667,571.525,125.617)">
        <path d="M0,-12.912C-0.789,-13.485 -1.799,-13.772 -3.028,-13.772C-3.527,-13.772 -4.017,-13.722 -4.499,-13.622C-4.981,-13.522 -5.409,-13.356 -5.783,-13.124C-6.157,-12.891 -6.456,-12.579 -6.68,-12.189C-6.905,-11.799 -7.016,-11.312 -7.016,-10.731C-7.016,-10.182 -6.854,-9.737 -6.531,-9.398C-6.206,-9.057 -5.775,-8.778 -5.234,-8.563C-4.694,-8.347 -4.084,-8.168 -3.402,-8.026C-2.721,-7.885 -2.028,-7.731 -1.321,-7.565C-0.614,-7.398 0.079,-7.203 0.76,-6.979C1.441,-6.756 2.052,-6.451 2.593,-6.069C3.132,-5.687 3.564,-5.205 3.889,-4.624C4.212,-4.043 4.375,-3.311 4.375,-2.431C4.375,-1.484 4.162,-0.674 3.739,-0.001C3.315,0.672 2.77,1.22 2.107,1.645C1.441,2.068 0.697,2.376 -0.124,2.567C-0.947,2.758 -1.766,2.854 -2.579,2.854C-3.577,2.854 -4.52,2.728 -5.409,2.48C-6.298,2.23 -7.078,1.852 -7.752,1.346C-8.425,0.838 -8.957,0.19 -9.347,-0.599C-9.738,-1.387 -9.933,-2.322 -9.933,-3.403L-7.689,-3.403C-7.689,-2.655 -7.545,-2.011 -7.253,-1.472C-6.962,-0.931 -6.58,-0.487 -6.106,-0.138C-5.633,0.212 -5.081,0.469 -4.45,0.635C-3.818,0.801 -3.17,0.883 -2.505,0.883C-1.973,0.883 -1.437,0.834 -0.898,0.735C-0.358,0.635 0.128,0.464 0.561,0.224C0.992,-0.017 1.341,-0.345 1.608,-0.761C1.873,-1.176 2.006,-1.708 2.006,-2.356C2.006,-2.97 1.845,-3.469 1.52,-3.852C1.197,-4.234 0.764,-4.545 0.224,-4.786C-0.315,-5.027 -0.927,-5.222 -1.607,-5.372C-2.29,-5.522 -2.983,-5.675 -3.689,-5.833C-4.395,-5.991 -5.089,-6.174 -5.771,-6.382C-6.452,-6.589 -7.062,-6.863 -7.602,-7.203C-8.142,-7.544 -8.574,-7.985 -8.898,-8.526C-9.222,-9.065 -9.384,-9.742 -9.384,-10.556C-9.384,-11.454 -9.201,-12.23 -8.836,-12.887C-8.47,-13.543 -7.984,-14.083 -7.378,-14.507C-6.771,-14.93 -6.082,-15.246 -5.308,-15.454C-4.536,-15.662 -3.743,-15.766 -2.928,-15.766C-2.014,-15.766 -1.167,-15.658 -0.386,-15.441C0.394,-15.226 1.081,-14.885 1.67,-14.419C2.26,-13.955 2.725,-13.369 3.066,-12.663C3.406,-11.956 3.593,-11.113 3.627,-10.133L1.384,-10.133C1.25,-11.412 0.789,-12.338 0,-12.912" style="fill:rgb(46,47,51);fill-rule:nonzero;"/>
    </g>
    <g transform="matrix(4.16667,0,0,4.16667,633.473,109.777)">
        <path d="M0,-0.399C-0.266,-0.2 -0.614,-0.056 -1.047,0.035C-1.479,0.126 -1.932,0.201 -2.406,0.258C-2.879,0.317 -3.357,0.382 -3.838,0.457C-4.32,0.532 -4.753,0.651 -5.135,0.817C-5.517,0.982 -5.828,1.217 -6.069,1.523C-6.31,1.829 -6.431,2.247 -6.431,2.776C-6.431,3.123 -6.36,3.416 -6.218,3.656C-6.078,3.897 -5.895,4.091 -5.67,4.239C-5.446,4.388 -5.184,4.495 -4.885,4.562C-4.586,4.628 -4.271,4.661 -3.938,4.661C-3.241,4.661 -2.642,4.566 -2.144,4.375C-1.644,4.185 -1.238,3.946 -0.922,3.656C-0.606,3.367 -0.374,3.053 -0.224,2.713C-0.075,2.375 0,2.056 0,1.758L0,-0.399ZM3.44,6.207C3.074,6.422 2.567,6.53 1.92,6.53C1.371,6.53 0.935,6.376 0.61,6.069C0.287,5.762 0.124,5.259 0.124,4.561C-0.457,5.259 -1.134,5.762 -1.906,6.069C-2.68,6.376 -3.514,6.53 -4.412,6.53C-4.993,6.53 -5.546,6.463 -6.069,6.331C-6.592,6.199 -7.045,5.99 -7.427,5.707C-7.81,5.425 -8.112,5.055 -8.337,4.598C-8.561,4.141 -8.673,3.588 -8.673,2.94C-8.673,2.21 -8.549,1.611 -8.299,1.147C-8.051,0.682 -7.722,0.304 -7.315,0.012C-6.909,-0.279 -6.443,-0.499 -5.919,-0.649C-5.397,-0.798 -4.86,-0.923 -4.312,-1.021C-3.731,-1.138 -3.178,-1.226 -2.654,-1.283C-2.131,-1.342 -1.67,-1.425 -1.272,-1.533C-0.872,-1.641 -0.557,-1.799 -0.323,-2.006C-0.091,-2.214 0.025,-2.518 0.025,-2.917C0.025,-3.382 -0.063,-3.756 -0.236,-4.038C-0.411,-4.321 -0.636,-4.536 -0.91,-4.686C-1.184,-4.837 -1.492,-4.935 -1.831,-4.986C-2.172,-5.034 -2.509,-5.06 -2.841,-5.06C-3.739,-5.06 -4.487,-4.89 -5.084,-4.549C-5.682,-4.209 -6.007,-3.565 -6.057,-2.618L-8.175,-2.618C-8.142,-3.415 -7.976,-4.088 -7.677,-4.636C-7.378,-5.184 -6.978,-5.629 -6.48,-5.97C-5.982,-6.31 -5.413,-6.556 -4.773,-6.705C-4.133,-6.854 -3.448,-6.929 -2.717,-6.929C-2.135,-6.929 -1.558,-6.888 -0.984,-6.805C-0.411,-6.722 0.108,-6.552 0.573,-6.295C1.038,-6.038 1.412,-5.677 1.695,-5.213C1.977,-4.748 2.119,-4.143 2.119,-3.398L2.119,3.218C2.119,3.717 2.148,4.08 2.205,4.312C2.264,4.545 2.459,4.661 2.792,4.661C2.975,4.661 3.19,4.628 3.44,4.561L3.44,6.207Z" style="fill:rgb(46,47,51);fill-rule:nonzero;"/>
    </g>
    <g transform="matrix(-4.16667,0,0,4.16667,1589.99,-454.042)">
        <rect x="221.912" y="123.776" width="2.12" height="17.796" style="fill:rgb(46,47,51);"/>
    </g>
    <g transform="matrix(4.16667,0,0,4.16667,715.208,83.2938)">
        <path d="M0,12.612L0,10.568L-0.051,10.568C-0.5,11.366 -1.073,11.952 -1.77,12.325C-2.469,12.699 -3.29,12.886 -4.237,12.886C-5.085,12.886 -5.792,12.774 -6.357,12.549C-6.922,12.325 -7.379,12.006 -7.728,11.59C-8.076,11.175 -8.322,10.68 -8.462,10.107C-8.604,9.534 -8.675,8.898 -8.675,8.2L-8.675,-0.274L-6.556,-0.274L-6.556,8.45C-6.556,9.247 -6.324,9.879 -5.857,10.344C-5.393,10.809 -4.753,11.041 -3.939,11.041C-3.29,11.041 -2.73,10.942 -2.256,10.743C-1.783,10.543 -1.388,10.261 -1.073,9.895C-0.757,9.53 -0.52,9.102 -0.362,8.611C-0.204,8.121 -0.126,7.585 -0.126,7.004L-0.126,-0.274L1.993,-0.274L1.993,12.612L0,12.612Z" style="fill:rgb(46,47,51);fill-rule:nonzero;"/>
    </g>
    <g transform="matrix(4.16667,0,0,4.16667,744.228,81.8946)">
        <path d="M0,8.374C0.158,8.947 0.399,9.459 0.723,9.907C1.047,10.355 1.463,10.713 1.969,10.979C2.477,11.245 3.07,11.377 3.752,11.377C4.466,11.377 5.072,11.237 5.572,10.953C6.07,10.672 6.476,10.302 6.793,9.845C7.108,9.388 7.336,8.868 7.478,8.287C7.619,7.705 7.69,7.116 7.69,6.517C7.69,5.885 7.615,5.275 7.466,4.686C7.316,4.095 7.078,3.576 6.755,3.127C6.431,2.678 6.011,2.317 5.497,2.044C4.981,1.77 4.357,1.632 3.627,1.632C2.912,1.632 2.306,1.772 1.807,2.056C1.309,2.339 0.91,2.713 0.61,3.178C0.313,3.643 0.096,4.174 -0.037,4.773C-0.17,5.371 -0.236,5.986 -0.236,6.617C-0.236,7.215 -0.158,7.801 0,8.374M7.615,12.948L7.615,11.203L7.565,11.203C7.216,11.918 6.668,12.433 5.92,12.749C5.172,13.064 4.349,13.222 3.453,13.222C2.455,13.222 1.587,13.039 0.848,12.674C0.108,12.308 -0.506,11.818 -0.997,11.203C-1.487,10.589 -1.857,9.874 -2.105,9.059C-2.355,8.246 -2.479,7.382 -2.479,6.468C-2.479,5.554 -2.359,4.69 -2.119,3.875C-1.878,3.062 -1.512,2.351 -1.022,1.743C-0.532,1.138 0.083,0.656 0.823,0.298C1.562,-0.059 2.422,-0.237 3.402,-0.237C3.735,-0.237 4.092,-0.204 4.475,-0.138C4.857,-0.071 5.239,0.041 5.621,0.199C6.003,0.357 6.365,0.564 6.706,0.822C7.045,1.08 7.332,1.399 7.565,1.781L7.615,1.781L7.615,-4.848L9.734,-4.848L9.734,12.948L7.615,12.948Z" style="fill:rgb(46,47,51);fill-rule:nonzero;"/>
    </g>
    <g transform="matrix(4.16667,0,0,4.16667,848.342,96.4821)">
        <path d="M0,11.166C-0.25,11.798 -0.494,12.329 -0.735,12.762C-0.976,13.194 -1.242,13.546 -1.534,13.822C-1.823,14.095 -2.148,14.294 -2.505,14.419C-2.863,14.544 -3.274,14.606 -3.739,14.606C-3.987,14.606 -4.237,14.59 -4.487,14.556C-4.735,14.523 -4.977,14.465 -5.21,14.383L-5.21,12.438C-5.027,12.52 -4.814,12.591 -4.574,12.65C-4.333,12.708 -4.129,12.737 -3.963,12.737C-3.531,12.737 -3.17,12.633 -2.879,12.426C-2.589,12.217 -2.368,11.922 -2.219,11.54L-1.346,9.372L-6.456,-3.44L-4.062,-3.44L-0.299,7.104L-0.25,7.104L3.365,-3.44L5.608,-3.44L0,11.166Z" style="fill:rgb(46,47,51);fill-rule:nonzero;"/>
    </g>
    <g transform="matrix(4.16667,0,0,4.16667,944.097,70.0004)">
        <path d="M0,13.808C1.047,13.808 1.865,13.526 2.455,12.961C3.044,12.396 3.34,11.615 3.34,10.618C3.34,10.037 3.231,9.555 3.016,9.173C2.8,8.791 2.513,8.488 2.156,8.263C1.798,8.039 1.387,7.881 0.922,7.789C0.457,7.698 -0.025,7.651 -0.524,7.651L-5.932,7.651L-5.932,13.808L0,13.808ZM-1.197,5.658C0.15,5.658 1.117,5.421 1.707,4.948C2.296,4.475 2.591,3.763 2.591,2.816C2.591,2.185 2.493,1.687 2.294,1.321C2.093,0.956 1.819,0.673 1.471,0.473C1.122,0.274 0.719,0.145 0.262,0.087C-0.195,0.029 -0.681,0 -1.197,0L-5.932,0L-5.932,5.658L-1.197,5.658ZM-1.845,-1.994C-1.463,-1.994 -1.051,-1.99 -0.61,-1.982C-0.171,-1.973 0.266,-1.948 0.697,-1.907C1.13,-1.865 1.532,-1.803 1.906,-1.72C2.28,-1.637 2.601,-1.512 2.867,-1.346C3.448,-0.997 3.942,-0.515 4.349,0.1C4.757,0.714 4.96,1.471 4.96,2.368C4.96,3.315 4.731,4.133 4.275,4.822C3.818,5.513 3.166,6.024 2.318,6.356L2.318,6.406C3.414,6.639 4.253,7.137 4.836,7.901C5.417,8.665 5.708,9.596 5.708,10.693C5.708,11.341 5.592,11.973 5.359,12.587C5.125,13.202 4.781,13.747 4.324,14.219C3.867,14.694 3.302,15.076 2.629,15.366C1.957,15.657 1.18,15.802 0.299,15.802L-8.301,15.802L-8.301,-1.994L-1.845,-1.994Z" style="fill:rgb(46,47,51);fill-rule:nonzero;"/>
    </g>
    <g transform="matrix(4.16667,0,0,4.16667,-268.108,-454.042)">
        <path d="M301.597,141.572L299.477,141.572L299.477,128.686L301.597,128.686L301.597,141.572ZM299.477,123.776L301.597,123.776L301.597,126.368L299.477,126.368L299.477,123.776Z" style="fill:rgb(46,47,51);fill-rule:nonzero;"/>
    </g>
    <g transform="matrix(4.16667,0,0,4.16667,1038.13,119.956)">
        <path d="M0,-5.285C-0.191,-5.732 -0.449,-6.12 -0.773,-6.443C-1.097,-6.768 -1.479,-7.026 -1.92,-7.215C-2.36,-7.408 -2.845,-7.502 -3.377,-7.502C-3.926,-7.502 -4.42,-7.408 -4.861,-7.215C-5.3,-7.026 -5.678,-6.764 -5.995,-6.431C-6.31,-6.099 -6.56,-5.712 -6.742,-5.272C-6.925,-4.832 -7.033,-4.362 -7.066,-3.864L0.337,-3.864C0.303,-4.362 0.191,-4.836 0,-5.285M0.51,2.99C-0.453,3.722 -1.666,4.087 -3.128,4.087C-4.158,4.087 -5.052,3.921 -5.808,3.589C-6.564,3.256 -7.2,2.791 -7.714,2.193C-8.23,1.594 -8.616,0.881 -8.874,0.049C-9.132,-0.781 -9.276,-1.686 -9.309,-2.667C-9.309,-3.647 -9.16,-4.545 -8.86,-5.36C-8.561,-6.173 -8.143,-6.88 -7.602,-7.477C-7.062,-8.076 -6.423,-8.541 -5.682,-8.874C-4.944,-9.206 -4.134,-9.372 -3.253,-9.372C-2.107,-9.372 -1.155,-9.135 -0.399,-8.662C0.357,-8.188 0.963,-7.587 1.42,-6.855C1.877,-6.124 2.193,-5.325 2.368,-4.462C2.542,-3.598 2.613,-2.775 2.579,-1.995L-7.066,-1.995C-7.082,-1.43 -7.017,-0.893 -6.867,-0.387C-6.718,0.121 -6.477,0.568 -6.145,0.96C-5.812,1.35 -5.389,1.661 -4.873,1.894C-4.359,2.127 -3.751,2.242 -3.054,2.242C-2.156,2.242 -1.421,2.035 -0.848,1.62C-0.274,1.204 0.103,0.572 0.286,-0.274L2.38,-0.274C2.097,1.171 1.475,2.26 0.51,2.99" style="fill:rgb(46,47,51);fill-rule:nonzero;"/>
    </g>
    <g transform="matrix(4.16667,0,0,4.16667,1066.33,134.596)">
        <path d="M0,-12.587L0,-10.543L0.049,-10.543C0.93,-12.105 2.326,-12.886 4.237,-12.886C5.084,-12.886 5.791,-12.769 6.356,-12.537C6.921,-12.304 7.378,-11.98 7.726,-11.564C8.075,-11.148 8.321,-10.654 8.462,-10.082C8.603,-9.508 8.673,-8.873 8.673,-8.175L8.673,0.299L6.555,0.299L6.555,-8.425C6.555,-9.222 6.322,-9.853 5.857,-10.319C5.391,-10.784 4.751,-11.016 3.938,-11.016C3.29,-11.016 2.729,-10.916 2.256,-10.718C1.782,-10.518 1.387,-10.235 1.071,-9.87C0.756,-9.504 0.52,-9.077 0.361,-8.586C0.203,-8.096 0.124,-7.56 0.124,-6.978L0.124,0.299L-1.994,0.299L-1.994,-12.587L0,-12.587Z" style="fill:rgb(46,47,51);fill-rule:nonzero;"/>
    </g>
    <g transform="matrix(4.16667,0,0,4.16667,1151.64,119.956)">
        <path d="M0,-5.285C-0.191,-5.732 -0.449,-6.12 -0.773,-6.443C-1.097,-6.768 -1.479,-7.026 -1.92,-7.215C-2.36,-7.408 -2.845,-7.502 -3.377,-7.502C-3.926,-7.502 -4.42,-7.408 -4.861,-7.215C-5.3,-7.026 -5.678,-6.764 -5.995,-6.431C-6.31,-6.099 -6.56,-5.712 -6.742,-5.272C-6.925,-4.832 -7.033,-4.362 -7.066,-3.864L0.337,-3.864C0.303,-4.362 0.191,-4.836 0,-5.285M0.51,2.99C-0.453,3.722 -1.666,4.087 -3.128,4.087C-4.158,4.087 -5.052,3.921 -5.808,3.589C-6.564,3.256 -7.2,2.791 -7.714,2.193C-8.23,1.594 -8.616,0.881 -8.874,0.049C-9.132,-0.781 -9.276,-1.686 -9.309,-2.667C-9.309,-3.647 -9.16,-4.545 -8.86,-5.36C-8.561,-6.173 -8.143,-6.88 -7.602,-7.477C-7.062,-8.076 -6.423,-8.541 -5.682,-8.874C-4.944,-9.206 -4.134,-9.372 -3.253,-9.372C-2.107,-9.372 -1.155,-9.135 -0.399,-8.662C0.357,-8.188 0.963,-7.587 1.42,-6.855C1.877,-6.124 2.193,-5.325 2.368,-4.462C2.542,-3.598 2.613,-2.775 2.579,-1.995L-7.066,-1.995C-7.082,-1.43 -7.017,-0.893 -6.867,-0.387C-6.718,0.121 -6.477,0.568 -6.145,0.96C-5.812,1.35 -5.389,1.661 -4.873,1.894C-4.359,2.127 -3.751,2.242 -3.054,2.242C-2.156,2.242 -1.421,2.035 -0.848,1.62C-0.274,1.204 0.103,0.572 0.286,-0.274L2.38,-0.274C2.097,1.171 1.475,2.26 0.51,2.99" style="fill:rgb(46,47,51);fill-rule:nonzero;"/>
    </g>
    <g transform="matrix(4.16667,0,0,4.16667,1178.28,94.0408)">
        <path d="M0,7.154C0.199,7.477 0.461,7.735 0.785,7.926C1.109,8.117 1.475,8.255 1.882,8.338C2.288,8.422 2.708,8.462 3.14,8.462C3.473,8.462 3.822,8.438 4.188,8.387C4.552,8.338 4.889,8.247 5.196,8.113C5.503,7.981 5.757,7.786 5.958,7.528C6.157,7.27 6.256,6.942 6.256,6.544C6.256,5.995 6.048,5.579 5.633,5.297C5.218,5.014 4.698,4.786 4.076,4.612C3.452,4.437 2.774,4.279 2.044,4.138C1.313,3.998 0.636,3.797 0.012,3.539C-0.61,3.283 -1.13,2.921 -1.546,2.456C-1.961,1.991 -2.168,1.342 -2.168,0.511C-2.168,-0.137 -2.024,-0.694 -1.733,-1.159C-1.441,-1.624 -1.067,-2.002 -0.61,-2.293C-0.154,-2.583 0.362,-2.799 0.935,-2.941C1.508,-3.082 2.077,-3.152 2.642,-3.152C3.373,-3.152 4.046,-3.09 4.661,-2.965C5.275,-2.841 5.82,-2.625 6.293,-2.317C6.767,-2.01 7.145,-1.595 7.427,-1.071C7.71,-0.548 7.876,0.105 7.927,0.885L5.808,0.885C5.775,0.47 5.666,0.125 5.483,-0.149C5.3,-0.423 5.068,-0.643 4.786,-0.81C4.503,-0.976 4.192,-1.097 3.851,-1.172C3.51,-1.245 3.166,-1.283 2.817,-1.283C2.501,-1.283 2.181,-1.258 1.857,-1.209C1.534,-1.159 1.238,-1.071 0.972,-0.948C0.707,-0.822 0.49,-0.656 0.325,-0.448C0.158,-0.24 0.075,0.03 0.075,0.361C0.075,0.727 0.203,1.031 0.461,1.271C0.719,1.513 1.047,1.712 1.445,1.87C1.845,2.029 2.294,2.161 2.792,2.269C3.29,2.377 3.788,2.489 4.287,2.606C4.818,2.722 5.338,2.863 5.845,3.029C6.352,3.195 6.801,3.415 7.191,3.689C7.581,3.964 7.897,4.309 8.138,4.724C8.378,5.14 8.5,5.654 8.5,6.268C8.5,7.05 8.337,7.698 8.013,8.213C7.689,8.729 7.265,9.144 6.742,9.46C6.218,9.775 5.629,9.995 4.973,10.119C4.316,10.245 3.664,10.306 3.016,10.306C2.302,10.306 1.62,10.232 0.972,10.082C0.325,9.932 -0.25,9.688 -0.748,9.347C-1.246,9.007 -1.644,8.558 -1.944,8.001C-2.243,7.445 -2.41,6.768 -2.443,5.97L-0.325,5.97C-0.307,6.435 -0.199,6.829 0,7.154" style="fill:rgb(46,47,51);fill-rule:nonzero;"/>
    </g>
    <g transform="matrix(4.16667,0,0,4.16667,1246.41,119.746)">
        <path d="M0,-9.023L0,-7.154L-2.567,-7.154L-2.567,0.847C-2.567,1.097 -2.547,1.296 -2.505,1.446C-2.463,1.595 -2.384,1.711 -2.268,1.794C-2.152,1.878 -1.99,1.932 -1.782,1.957C-1.575,1.981 -1.305,1.995 -0.972,1.995L0,1.995L0,3.863L-1.62,3.863C-2.168,3.863 -2.638,3.826 -3.028,3.751C-3.42,3.676 -3.735,3.539 -3.975,3.34C-4.217,3.141 -4.396,2.859 -4.511,2.493C-4.629,2.127 -4.686,1.645 -4.686,1.048L-4.686,-7.154L-6.879,-7.154L-6.879,-9.023L-4.686,-9.023L-4.686,-12.886L-2.567,-12.886L-2.567,-9.023L0,-9.023Z" style="fill:rgb(46,47,51);fill-rule:nonzero;"/>
    </g>
    <g transform="matrix(4.16667,0,0,4.16667,1289.4,109.777)">
        <path d="M0,-0.399C-0.266,-0.2 -0.614,-0.056 -1.047,0.035C-1.479,0.126 -1.932,0.201 -2.406,0.258C-2.879,0.317 -3.357,0.382 -3.838,0.457C-4.32,0.532 -4.753,0.651 -5.135,0.817C-5.517,0.982 -5.828,1.217 -6.069,1.523C-6.31,1.829 -6.431,2.247 -6.431,2.776C-6.431,3.123 -6.36,3.416 -6.218,3.656C-6.078,3.897 -5.895,4.091 -5.67,4.239C-5.446,4.388 -5.184,4.495 -4.885,4.562C-4.586,4.628 -4.271,4.661 -3.938,4.661C-3.241,4.661 -2.642,4.566 -2.144,4.375C-1.644,4.185 -1.238,3.946 -0.922,3.656C-0.606,3.367 -0.374,3.053 -0.224,2.713C-0.075,2.375 0,2.056 0,1.758L0,-0.399ZM3.44,6.207C3.074,6.422 2.567,6.53 1.92,6.53C1.371,6.53 0.935,6.376 0.61,6.069C0.287,5.762 0.124,5.259 0.124,4.561C-0.457,5.259 -1.134,5.762 -1.906,6.069C-2.68,6.376 -3.514,6.53 -4.412,6.53C-4.993,6.53 -5.546,6.463 -6.069,6.331C-6.592,6.199 -7.045,5.99 -7.427,5.707C-7.81,5.425 -8.112,5.055 -8.337,4.598C-8.561,4.141 -8.673,3.588 -8.673,2.94C-8.673,2.21 -8.549,1.611 -8.299,1.147C-8.051,0.682 -7.722,0.304 -7.315,0.012C-6.909,-0.279 -6.443,-0.499 -5.919,-0.649C-5.397,-0.798 -4.86,-0.923 -4.312,-1.021C-3.731,-1.138 -3.178,-1.226 -2.654,-1.283C-2.131,-1.342 -1.67,-1.425 -1.272,-1.533C-0.872,-1.641 -0.557,-1.799 -0.323,-2.006C-0.091,-2.214 0.025,-2.518 0.025,-2.917C0.025,-3.382 -0.063,-3.756 -0.236,-4.038C-0.411,-4.321 -0.636,-4.536 -0.91,-4.686C-1.184,-4.837 -1.492,-4.935 -1.831,-4.986C-2.172,-5.034 -2.509,-5.06 -2.841,-5.06C-3.739,-5.06 -4.487,-4.89 -5.084,-4.549C-5.682,-4.209 -6.007,-3.565 -6.057,-2.618L-8.175,-2.618C-8.142,-3.415 -7.976,-4.088 -7.677,-4.636C-7.378,-5.184 -6.978,-5.629 -6.48,-5.97C-5.982,-6.31 -5.413,-6.556 -4.773,-6.705C-4.133,-6.854 -3.448,-6.929 -2.717,-6.929C-2.135,-6.929 -1.558,-6.888 -0.984,-6.805C-0.411,-6.722 0.108,-6.552 0.573,-6.295C1.038,-6.038 1.412,-5.677 1.695,-5.213C1.977,-4.748 2.119,-4.143 2.119,-3.398L2.119,3.218C2.119,3.717 2.148,4.08 2.205,4.312C2.264,4.545 2.459,4.661 2.792,4.661C2.975,4.661 3.19,4.628 3.44,4.561L3.44,6.207Z" style="fill:rgb(46,47,51);fill-rule:nonzero;"/>
    </g>
    <g transform="matrix(4.16667,0,0,4.16667,1319.93,134.458)">
        <path d="M0,-12.554L0,-9.837L0.049,-9.837C0.565,-10.883 1.197,-11.656 1.944,-12.155C2.692,-12.654 3.639,-12.886 4.785,-12.853L4.785,-10.609C3.938,-10.609 3.215,-10.493 2.617,-10.26C2.018,-10.028 1.536,-9.687 1.172,-9.239C0.806,-8.79 0.54,-8.246 0.374,-7.606C0.207,-6.966 0.124,-6.23 0.124,-5.401L0.124,0.332L-1.994,0.332L-1.994,-12.554L0,-12.554Z" style="fill:rgb(46,47,51);fill-rule:nonzero;"/>
    </g>
    <g transform="matrix(4.16667,0,0,4.16667,572.305,207.184)">
        <path d="M0,3.093L-2.965,-5.208L-3.016,-5.208L-6.032,3.093L0,3.093ZM-1.646,-7.352L5.308,10.445L2.692,10.445L0.748,5.086L-6.779,5.086L-8.774,10.445L-11.191,10.445L-4.263,-7.352L-1.646,-7.352Z" style="fill:rgb(46,47,51);fill-rule:nonzero;"/>
    </g>
    <g transform="matrix(4.16667,0,0,4.16667,608.55,249.458)">
        <path d="M0,-12.587L0,-10.543L0.049,-10.543C0.93,-12.105 2.326,-12.886 4.237,-12.886C5.084,-12.886 5.791,-12.769 6.356,-12.536C6.921,-12.304 7.378,-11.981 7.726,-11.565C8.075,-11.15 8.321,-10.655 8.462,-10.082C8.603,-9.508 8.673,-8.873 8.673,-8.175L8.673,0.299L6.555,0.299L6.555,-8.425C6.555,-9.222 6.322,-9.853 5.857,-10.319C5.391,-10.784 4.751,-11.016 3.938,-11.016C3.29,-11.016 2.729,-10.917 2.256,-10.717C1.782,-10.518 1.387,-10.235 1.071,-9.87C0.756,-9.504 0.52,-9.077 0.361,-8.586C0.203,-8.096 0.124,-7.56 0.124,-6.978L0.124,0.299L-1.994,0.299L-1.994,-12.587L0,-12.587Z" style="fill:rgb(46,47,51);fill-rule:nonzero;"/>
    </g>
    <g transform="matrix(4.16667,0,0,4.16667,-268.108,-224.317)">
        <path d="M224.505,114.005L222.385,114.005L222.385,101.119L224.505,101.119L224.505,114.005ZM222.385,96.209L224.505,96.209L224.505,98.802L222.385,98.802L222.385,96.209Z" style="fill:rgb(46,47,51);fill-rule:nonzero;"/>
    </g>
    <g transform="matrix(4.16667,0,0,4.16667,689.343,249.458)">
        <path d="M0,-12.587L0,-10.693L0.049,-10.693C1.014,-12.154 2.4,-12.886 4.212,-12.886C5.009,-12.886 5.733,-12.719 6.381,-12.387C7.029,-12.055 7.486,-11.49 7.752,-10.693C8.183,-11.39 8.752,-11.93 9.459,-12.313C10.165,-12.695 10.942,-12.886 11.79,-12.886C12.438,-12.886 13.023,-12.815 13.546,-12.674C14.07,-12.532 14.519,-12.313 14.893,-12.014C15.267,-11.715 15.557,-11.327 15.765,-10.854C15.972,-10.38 16.076,-9.811 16.076,-9.147L16.076,0.299L13.958,0.299L13.958,-8.149C13.958,-8.549 13.924,-8.923 13.858,-9.272C13.792,-9.62 13.667,-9.923 13.484,-10.181C13.301,-10.439 13.048,-10.642 12.723,-10.792C12.4,-10.941 11.981,-11.016 11.465,-11.016C10.418,-11.016 9.596,-10.717 8.998,-10.12C8.4,-9.521 8.1,-8.724 8.1,-7.726L8.1,0.299L5.982,0.299L5.982,-8.149C5.982,-8.565 5.944,-8.948 5.87,-9.297C5.795,-9.646 5.666,-9.949 5.483,-10.207C5.3,-10.464 5.056,-10.663 4.747,-10.805C4.44,-10.945 4.046,-11.016 3.564,-11.016C2.949,-11.016 2.422,-10.892 1.981,-10.642C1.542,-10.394 1.184,-10.094 0.91,-9.746C0.636,-9.396 0.435,-9.035 0.311,-8.661C0.187,-8.287 0.124,-7.976 0.124,-7.726L0.124,0.299L-1.994,0.299L-1.994,-12.587L0,-12.587Z" style="fill:rgb(46,47,51);fill-rule:nonzero;"/>
    </g>
    <g transform="matrix(4.16667,0,0,4.16667,802.858,224.635)">
        <path d="M0,-0.398C-0.266,-0.199 -0.614,-0.055 -1.047,0.036C-1.479,0.127 -1.932,0.202 -2.406,0.259C-2.879,0.318 -3.357,0.383 -3.838,0.458C-4.32,0.533 -4.753,0.652 -5.135,0.818C-5.517,0.983 -5.828,1.218 -6.069,1.524C-6.31,1.83 -6.431,2.248 -6.431,2.777C-6.431,3.125 -6.36,3.417 -6.218,3.657C-6.078,3.898 -5.895,4.092 -5.67,4.24C-5.446,4.39 -5.184,4.496 -4.885,4.563C-4.586,4.629 -4.271,4.662 -3.938,4.662C-3.241,4.662 -2.642,4.567 -2.144,4.376C-1.644,4.186 -1.238,3.947 -0.922,3.657C-0.606,3.368 -0.374,3.054 -0.224,2.714C-0.075,2.376 0,2.057 0,1.759L0,-0.398ZM3.44,6.208C3.074,6.423 2.567,6.531 1.92,6.531C1.371,6.531 0.935,6.377 0.61,6.07C0.287,5.763 0.124,5.26 0.124,4.562C-0.457,5.26 -1.134,5.763 -1.906,6.07C-2.68,6.377 -3.514,6.531 -4.412,6.531C-4.993,6.531 -5.546,6.464 -6.069,6.332C-6.592,6.2 -7.045,5.991 -7.427,5.708C-7.81,5.426 -8.112,5.056 -8.337,4.599C-8.561,4.142 -8.673,3.589 -8.673,2.942C-8.673,2.211 -8.549,1.612 -8.299,1.148C-8.051,0.683 -7.722,0.305 -7.315,0.013C-6.909,-0.278 -6.443,-0.498 -5.919,-0.648C-5.397,-0.797 -4.86,-0.922 -4.312,-1.02C-3.731,-1.137 -3.178,-1.225 -2.654,-1.282C-2.131,-1.341 -1.67,-1.424 -1.272,-1.532C-0.872,-1.64 -0.557,-1.798 -0.323,-2.005C-0.091,-2.213 0.025,-2.517 0.025,-2.916C0.025,-3.381 -0.063,-3.755 -0.236,-4.037C-0.411,-4.32 -0.636,-4.535 -0.91,-4.685C-1.184,-4.834 -1.492,-4.934 -1.831,-4.984C-2.172,-5.035 -2.509,-5.059 -2.841,-5.059C-3.739,-5.059 -4.487,-4.889 -5.084,-4.548C-5.683,-4.208 -6.007,-3.564 -6.057,-2.617L-8.175,-2.617C-8.142,-3.414 -7.976,-4.087 -7.677,-4.635C-7.378,-5.184 -6.978,-5.628 -6.48,-5.968C-5.982,-6.309 -5.413,-6.555 -4.773,-6.704C-4.133,-6.854 -3.448,-6.929 -2.717,-6.929C-2.135,-6.929 -1.558,-6.886 -0.984,-6.803C-0.411,-6.72 0.108,-6.551 0.573,-6.294C1.038,-6.036 1.412,-5.676 1.695,-5.212C1.977,-4.747 2.119,-4.142 2.119,-3.397L2.119,3.219C2.119,3.718 2.148,4.081 2.205,4.313C2.264,4.546 2.459,4.662 2.792,4.662C2.975,4.662 3.19,4.629 3.44,4.562L3.44,6.208Z" style="fill:rgb(46,47,51);fill-rule:nonzero;"/>
    </g>
    <g transform="matrix(-4.16667,0,0,4.16667,1928.75,-224.321)">
        <rect x="262.563" y="96.209" width="2.12" height="17.797" style="fill:rgb(46,47,51);"/>
    </g>
    <g transform="matrix(-4.16667,0,0,4.16667,1392.45,-57.3875)">
        <rect x="190.507" y="84.106" width="17.521" height="1.939" style="fill:rgb(52,56,57);"/>
    </g>
    <g transform="matrix(4.16667,0,0,4.16667,548.624,411.92)">
        <path d="M0,-17.797L4.162,-5.558L4.213,-5.558L8.151,-17.797L13.659,-17.797L13.659,0L9.994,0L9.994,-12.613L9.945,-12.613L5.584,0L2.567,0L-1.794,-12.487L-1.845,-12.487L-1.845,0L-5.509,0L-5.509,-17.797L0,-17.797Z" style="fill:rgb(52,56,57);fill-rule:nonzero;"/>
    </g>
    <g transform="matrix(4.16667,0,0,4.16667,632.022,378.635)">
        <path d="M0,3.066C0.099,3.556 0.27,3.997 0.51,4.387C0.751,4.777 1.071,5.088 1.469,5.321C1.869,5.555 2.367,5.671 2.965,5.671C3.564,5.671 4.066,5.555 4.474,5.321C4.881,5.088 5.204,4.777 5.446,4.387C5.687,3.997 5.856,3.556 5.956,3.066C6.057,2.576 6.106,2.074 6.106,1.558C6.106,1.044 6.057,0.536 5.956,0.038C5.856,-0.461 5.687,-0.901 5.446,-1.283C5.204,-1.665 4.881,-1.977 4.474,-2.218C4.066,-2.459 3.564,-2.579 2.965,-2.579C2.367,-2.579 1.869,-2.459 1.469,-2.218C1.071,-1.977 0.751,-1.665 0.51,-1.283C0.27,-0.901 0.099,-0.461 0,0.038C-0.1,0.536 -0.15,1.044 -0.15,1.558C-0.15,2.074 -0.1,2.576 0,3.066M-3.215,-1.246C-2.9,-2.085 -2.451,-2.799 -1.87,-3.39C-1.289,-3.979 -0.59,-4.437 0.224,-4.76C1.038,-5.085 1.952,-5.247 2.965,-5.247C3.979,-5.247 4.897,-5.085 5.72,-4.76C6.543,-4.437 7.244,-3.979 7.826,-3.39C8.408,-2.799 8.856,-2.085 9.172,-1.246C9.487,-0.407 9.646,0.528 9.646,1.558C9.646,2.588 9.487,3.519 9.172,4.35C8.856,5.181 8.408,5.891 7.826,6.48C7.244,7.071 6.543,7.524 5.72,7.839C4.897,8.154 3.979,8.313 2.965,8.313C1.952,8.313 1.038,8.154 0.224,7.839C-0.59,7.524 -1.289,7.071 -1.87,6.48C-2.451,5.891 -2.9,5.181 -3.215,4.35C-3.532,3.519 -3.689,2.588 -3.689,1.558C-3.689,0.528 -3.532,-0.407 -3.215,-1.246" style="fill:rgb(52,56,57);fill-rule:nonzero;"/>
    </g>
    <g transform="matrix(4.16667,0,0,4.16667,695.784,410.464)">
        <path d="M0,-12.537L0,-10.742L0.075,-10.742C0.522,-11.49 1.105,-12.033 1.819,-12.374C2.533,-12.715 3.265,-12.886 4.013,-12.886C4.96,-12.886 5.736,-12.756 6.342,-12.5C6.949,-12.242 7.427,-11.884 7.776,-11.427C8.124,-10.97 8.37,-10.414 8.512,-9.757C8.652,-9.101 8.723,-8.375 8.723,-7.577L8.723,0.349L5.184,0.349L5.184,-6.928C5.184,-7.991 5.017,-8.786 4.685,-9.308C4.353,-9.832 3.763,-10.094 2.916,-10.094C1.952,-10.094 1.254,-9.808 0.822,-9.234C0.39,-8.661 0.174,-7.717 0.174,-6.406L0.174,0.349L-3.365,0.349L-3.365,-12.537L0,-12.537Z" style="fill:rgb(52,56,57);fill-rule:nonzero;"/>
    </g>
    <g transform="matrix(4.16667,0,0,4.16667,772.843,396.343)">
        <path d="M0,-9.148L0,-6.78L-2.593,-6.78L-2.593,-0.399C-2.593,0.199 -2.493,0.598 -2.294,0.797C-2.095,0.996 -1.695,1.096 -1.097,1.096C-0.898,1.096 -0.707,1.088 -0.524,1.071C-0.341,1.055 -0.167,1.031 0,0.996L0,3.738C-0.299,3.788 -0.632,3.821 -0.998,3.839C-1.363,3.855 -1.721,3.863 -2.069,3.863C-2.617,3.863 -3.136,3.825 -3.627,3.75C-4.117,3.676 -4.55,3.531 -4.922,3.315C-5.296,3.099 -5.592,2.791 -5.808,2.392C-6.024,1.994 -6.131,1.47 -6.131,0.822L-6.131,-6.78L-8.275,-6.78L-8.275,-9.148L-6.131,-9.148L-6.131,-13.011L-2.593,-13.011L-2.593,-9.148L0,-9.148Z" style="fill:rgb(52,56,57);fill-rule:nonzero;"/>
    </g>
    <g transform="matrix(4.16667,0,0,4.16667,812.36,399.253)">
        <path d="M0,-6.83C-0.425,-7.295 -1.069,-7.527 -1.933,-7.527C-2.498,-7.527 -2.967,-7.432 -3.341,-7.241C-3.715,-7.05 -4.014,-6.813 -4.237,-6.531C-4.462,-6.248 -4.621,-5.95 -4.711,-5.633C-4.804,-5.318 -4.857,-5.036 -4.873,-4.786L0.884,-4.786C0.717,-5.684 0.423,-6.365 0,-6.83M-4.001,-0.051C-3.469,0.465 -2.705,0.723 -1.708,0.723C-0.994,0.723 -0.379,0.544 0.136,0.187C0.652,-0.171 0.967,-0.549 1.083,-0.947L4.2,-0.947C3.7,0.597 2.936,1.703 1.906,2.367C0.876,3.032 -0.37,3.365 -1.833,3.365C-2.847,3.365 -3.76,3.202 -4.574,2.879C-5.389,2.554 -6.078,2.093 -6.643,1.495C-7.208,0.896 -7.645,0.183 -7.952,-0.649C-8.259,-1.479 -8.413,-2.394 -8.413,-3.39C-8.413,-4.353 -8.255,-5.251 -7.939,-6.082C-7.623,-6.913 -7.175,-7.631 -6.594,-8.238C-6.011,-8.844 -5.318,-9.323 -4.512,-9.671C-3.707,-10.02 -2.813,-10.195 -1.833,-10.195C-0.736,-10.195 0.219,-9.982 1.034,-9.559C1.847,-9.136 2.517,-8.567 3.04,-7.852C3.564,-7.137 3.942,-6.322 4.174,-5.409C4.407,-4.495 4.49,-3.54 4.424,-2.543L-4.873,-2.543C-4.824,-1.396 -4.532,-0.565 -4.001,-0.051" style="fill:rgb(52,56,57);fill-rule:nonzero;"/>
    </g>
    <g transform="matrix(4.16667,0,0,4.16667,853.537,410.464)">
        <path d="M0,-12.537L0,-10.143L0.049,-10.143C0.215,-10.543 0.439,-10.913 0.723,-11.253C1.005,-11.594 1.329,-11.884 1.694,-12.126C2.06,-12.366 2.45,-12.553 2.865,-12.687C3.281,-12.819 3.714,-12.886 4.162,-12.886C4.395,-12.886 4.651,-12.844 4.934,-12.761L4.934,-9.471C4.769,-9.503 4.568,-9.533 4.336,-9.558C4.104,-9.584 3.879,-9.596 3.663,-9.596C3.015,-9.596 2.467,-9.487 2.018,-9.271C1.57,-9.056 1.209,-8.761 0.934,-8.387C0.66,-8.013 0.465,-7.577 0.349,-7.078C0.232,-6.579 0.174,-6.04 0.174,-5.459L0.174,0.349L-3.365,0.349L-3.365,-12.537L0,-12.537Z" style="fill:rgb(52,56,57);fill-rule:nonzero;"/>
    </g>
    <g transform="matrix(4.16667,0,0,4.16667,893.933,410.464)">
        <path d="M0,-12.537L0,-10.143L0.049,-10.143C0.215,-10.543 0.439,-10.913 0.723,-11.253C1.005,-11.594 1.329,-11.884 1.694,-12.126C2.06,-12.366 2.45,-12.553 2.865,-12.687C3.281,-12.819 3.714,-12.886 4.162,-12.886C4.395,-12.886 4.651,-12.844 4.934,-12.761L4.934,-9.471C4.769,-9.503 4.568,-9.533 4.336,-9.558C4.104,-9.584 3.879,-9.596 3.663,-9.596C3.015,-9.596 2.467,-9.487 2.018,-9.271C1.57,-9.056 1.209,-8.761 0.934,-8.387C0.66,-8.013 0.465,-7.577 0.349,-7.078C0.232,-6.579 0.174,-6.04 0.174,-5.459L0.174,0.349L-3.365,0.349L-3.365,-12.537L0,-12.537Z" style="fill:rgb(52,56,57);fill-rule:nonzero;"/>
    </g>
    <g transform="matrix(4.16667,0,0,4.16667,950.9,399.253)">
        <path d="M0,-6.83C-0.425,-7.295 -1.069,-7.527 -1.933,-7.527C-2.498,-7.527 -2.967,-7.432 -3.341,-7.241C-3.715,-7.05 -4.014,-6.813 -4.237,-6.531C-4.462,-6.248 -4.621,-5.95 -4.711,-5.633C-4.804,-5.318 -4.857,-5.036 -4.873,-4.786L0.884,-4.786C0.717,-5.684 0.423,-6.365 0,-6.83M-4.001,-0.051C-3.469,0.465 -2.705,0.723 -1.708,0.723C-0.994,0.723 -0.379,0.544 0.136,0.187C0.652,-0.171 0.967,-0.549 1.083,-0.947L4.2,-0.947C3.7,0.597 2.936,1.703 1.906,2.367C0.876,3.032 -0.37,3.365 -1.833,3.365C-2.847,3.365 -3.76,3.202 -4.574,2.879C-5.389,2.554 -6.078,2.093 -6.643,1.495C-7.208,0.896 -7.645,0.183 -7.952,-0.649C-8.259,-1.479 -8.413,-2.394 -8.413,-3.39C-8.413,-4.353 -8.255,-5.251 -7.939,-6.082C-7.623,-6.913 -7.175,-7.631 -6.594,-8.238C-6.011,-8.844 -5.318,-9.323 -4.512,-9.671C-3.707,-10.02 -2.813,-10.195 -1.833,-10.195C-0.736,-10.195 0.219,-9.982 1.034,-9.559C1.847,-9.136 2.517,-8.567 3.04,-7.852C3.564,-7.137 3.942,-6.322 4.174,-5.409C4.407,-4.495 4.49,-3.54 4.424,-2.543L-4.873,-2.543C-4.824,-1.396 -4.532,-0.565 -4.001,-0.051" style="fill:rgb(52,56,57);fill-rule:nonzero;"/>
    </g>
    <g transform="matrix(4.16667,0,0,4.16667,997.886,361.025)">
        <path d="M0,16.054C-0.681,16.501 -1.628,16.726 -2.841,16.726C-3.206,16.726 -3.568,16.714 -3.925,16.689C-4.283,16.664 -4.645,16.635 -5.009,16.602L-5.009,13.686C-4.677,13.719 -4.336,13.751 -3.987,13.786C-3.639,13.818 -3.29,13.826 -2.94,13.81C-2.475,13.76 -2.131,13.577 -1.906,13.262C-1.682,12.946 -1.57,12.597 -1.57,12.215C-1.57,11.933 -1.619,11.666 -1.719,11.417L-6.23,-0.672L-2.467,-0.672L0.449,8.153L0.5,8.153L3.315,-0.672L6.98,-0.672L1.596,13.81C1.213,14.857 0.681,15.605 0,16.054" style="fill:rgb(52,56,57);fill-rule:nonzero;"/>
    </g>
    <g transform="matrix(4.16667,0,0,4.16667,189.806,203.961)">
        <path d="M0,24.327C-0.761,23.582 -1.317,22.829 -1.832,22.045C-2.177,21.521 -2.511,20.989 -2.849,20.46C-3.214,19.887 -3.567,19.307 -3.943,18.742C-4.678,17.638 -5.494,16.602 -6.613,15.857C-7.615,15.189 -8.632,14.544 -9.645,13.892C-10.976,13.035 -12.309,12.179 -13.343,10.95C-13.96,10.218 -14.429,9.403 -14.698,8.475C-15.011,7.397 -15.093,6.313 -14.845,5.212C-14.597,4.106 -14.089,3.131 -13.31,2.311C-12.939,1.918 -12.539,1.543 -12.11,1.216C-11.263,0.569 -10.305,0.13 -9.279,-0.158C-8.461,-0.388 -7.627,-0.521 -6.778,-0.507C-6.271,-0.498 -5.765,-0.445 -5.26,-0.396C-4.412,-0.314 -3.568,-0.351 -2.743,-0.552C-1.718,-0.802 -0.702,-1.088 0.313,-1.375C1.259,-1.642 2.206,-1.897 3.187,-2.001C4.13,-2.101 5.06,-2.022 5.966,-1.75C6.571,-1.567 7.173,-1.362 7.751,-1.108C8.223,-0.901 8.669,-0.625 9.105,-0.345C9.973,0.214 10.688,0.951 11.341,1.738C11.967,2.493 12.426,3.357 12.784,4.273C13.075,5.016 13.28,5.779 13.389,6.568C13.513,7.456 13.454,8.34 13.249,9.204C13.019,10.175 12.74,11.134 12.471,12.096C12.169,13.179 11.861,14.259 11.777,15.389C11.729,16.027 11.808,16.654 11.87,17.285C11.974,18.334 11.886,19.368 11.638,20.394C11.459,21.132 11.186,21.831 10.84,22.501C10.535,23.092 10.149,23.63 9.703,24.124C9.111,24.778 8.441,25.337 7.65,25.731C6.85,26.13 6.001,26.361 5.101,26.391C4.018,26.428 2.985,26.214 2.01,25.756C1.22,25.384 0.511,24.885 0,24.327" style="fill:white;fill-rule:nonzero;"/>
    </g>
    <g transform="matrix(4.16667,0,0,4.16667,260.233,216.705)">
        <path d="M0,-6.732C0.989,-7.715 1.945,-8.363 3.028,-8.809C4.185,-9.286 5.387,-9.524 6.644,-9.337C7.734,-9.176 8.67,-8.718 9.388,-7.864C9.858,-7.305 10.137,-6.65 10.255,-5.934C10.454,-4.729 10.226,-3.584 9.729,-2.482C9.237,-1.389 8.547,-0.435 7.66,0.367C6.755,1.187 5.739,1.837 4.581,2.246C3.511,2.623 2.413,2.792 1.281,2.606C-0.084,2.381 -1.15,1.705 -1.822,0.477C-2.256,-0.317 -2.381,-1.185 -2.298,-2.079C-2.184,-3.317 -1.734,-4.432 -1.042,-5.46C-0.692,-5.98 -0.291,-6.452 0,-6.732" style="fill:white;fill-rule:nonzero;"/>
    </g>
    <g transform="matrix(4.16667,0,0,4.16667,252.887,147.94)">
        <path d="M0,7.888C-0.834,8.733 -1.795,9.39 -2.902,9.818C-3.919,10.212 -4.97,10.393 -6.058,10.187C-7.007,10.008 -7.81,9.571 -8.442,8.818C-9.066,8.075 -9.36,7.212 -9.443,6.265C-9.545,5.109 -9.311,4.01 -8.87,2.943C-8.414,1.839 -7.736,0.884 -6.918,0.031C-6.553,-0.349 -6.123,-0.673 -5.696,-0.987C-5.006,-1.493 -4.247,-1.876 -3.423,-2.118C-2.341,-2.435 -1.249,-2.505 -0.172,-2.134C0.852,-1.781 1.618,-1.11 2.102,-0.126C2.602,0.891 2.695,1.961 2.532,3.061C2.25,4.963 1.331,6.535 0,7.888" style="fill:white;fill-rule:nonzero;"/>
    </g>
    <g transform="matrix(4.16667,0,0,4.16667,294.507,247.577)">
        <path d="M0,6.28C-0.848,7.088 -1.82,7.744 -2.923,8.208C-4.056,8.684 -5.232,8.919 -6.461,8.845C-7.368,8.79 -8.232,8.563 -9,8.062C-10.039,7.383 -10.683,6.439 -10.845,5.193C-10.966,4.264 -10.798,3.379 -10.447,2.517C-10.086,1.631 -9.539,0.867 -8.89,0.179C-8.356,-0.387 -7.736,-0.856 -7.067,-1.259C-6.368,-1.679 -5.631,-2.01 -4.848,-2.234C-3.689,-2.566 -2.516,-2.639 -1.329,-2.377C-0.389,-2.169 0.426,-1.742 1.081,-1.029C1.759,-0.291 2.092,0.585 2.117,1.583C2.143,2.589 1.871,3.519 1.399,4.4C1.029,5.091 0.557,5.702 0,6.28" style="fill:white;fill-rule:nonzero;"/>
    </g>
    <g transform="matrix(4.16667,0,0,4.16667,167.787,183.271)">
        <path d="M0,-8.8C0.82,-9.587 1.735,-10.228 2.821,-10.594C3.715,-10.895 4.628,-10.986 5.551,-10.755C6.577,-10.498 7.377,-9.908 7.942,-9.016C8.75,-7.74 8.881,-6.337 8.662,-4.88C8.491,-3.748 8.087,-2.702 7.498,-1.722C6.78,-0.526 5.856,0.466 4.666,1.198C3.659,1.818 2.568,2.186 1.372,2.123C0.441,2.073 -0.391,1.757 -1.095,1.115C-2.143,0.16 -2.557,-1.06 -2.625,-2.431C-2.678,-3.507 -2.476,-4.54 -2.101,-5.547C-1.701,-6.621 -1.094,-7.565 -0.362,-8.435C-0.252,-8.566 -0.121,-8.679 0,-8.8" style="fill:white;fill-rule:nonzero;"/>
    </g>
    <defs>
        <linearGradient id="_Linear1" x1="0" y1="0" x2="1" y2="0" gradientUnits="userSpaceOnUse" gradientTransform="matrix(1,0,0,-1,0,-4.62479e-06)"><stop offset="0" style="stop-color:rgb(241,91,80);stop-opacity:1"/><stop offset="0.52" style="stop-color:rgb(130,71,154);stop-opacity:1"/><stop offset="1" style="stop-color:rgb(238,70,137);stop-opacity:1"/></linearGradient>
    </defs>
</svg>
