<svg clip-rule="evenodd" fill-rule="evenodd" viewBox="0 0 632 372" xmlns="http://www.w3.org/2000/svg"><path d="m40 52c0-6.627 5.373-12 12-12h527.415c6.627 0 12 5.373 12 12v267.952c0 6.628-5.373 12.001-12 12.001h-527.415c-6.627 0-12-5.373-12-12z" fill="#fbfbfb" fill-rule="nonzero"/><path d="m52 42h527.415v-4h-527.415zm537.415 10v267.952h4v-267.952zm-10 277.953h-527.415v4h527.415zm-537.415-10v-267.953h-4v267.953zm10 10c-5.523 0-10-4.478-10-10h-4c0 7.732 6.268 14 14 14zm537.415-10.001c0 5.523-4.477 10.001-10 10.001v4c7.732 0 14-6.269 14-14.001zm-10-277.952c5.523 0 10 4.477 10 10h4c0-7.732-6.268-14-14-14zm-527.415-4c-7.732 0-14 6.268-14 14h4c0-5.523 4.477-10 10-10z" fill="#e6e6e6" fill-rule="nonzero"/><path d="m237.5 96c0-4.139-3.361-7.5-7.5-7.5h-134c-4.139 0-7.5 3.361-7.5 7.5v175c0 4.139 3.361 7.5 7.5 7.5h134c4.139 0 7.5-3.361 7.5-7.5z" fill="#f1e5ff"/><path d="m237.5 96c0-4.139-3.361-7.5-7.5-7.5h-134c-4.139 0-7.5 3.361-7.5 7.5v175c0 4.139 3.361 7.5 7.5 7.5h134c4.139 0 7.5-3.361 7.5-7.5z" fill="none" stroke="#d9b8ff"/><circle cx="163" cy="128" fill="#9747ff" r="28"/><g fill-rule="nonzero"><path d="m165.268 138.44c-.352 0-.648-.136-.888-.408-.224-.272-.336-.72-.336-1.344 0-.208.024-.432.072-.672.048-.256.136-.512.264-.768-.8-1.984-1.472-3.912-2.016-5.784s-1.008-3.832-1.392-5.88c-.512 1.056-1 2.152-1.464 3.288-.448 1.12-.872 2.216-1.272 3.288s-.76 2.072-1.08 3-.6 1.728-.84 2.4c-.256.8-.512 1.336-.768 1.608-.256.288-.52.432-.792.432-.368 0-.648-.088-.84-.264-.176-.176-.264-.488-.264-.936 0-.336.088-.856.264-1.56s.416-1.52.72-2.448c.32-.928.68-1.904 1.08-2.928s.824-2.024 1.272-3c.464-.976.928-1.856 1.392-2.64.464-.8.904-1.432 1.32-1.896.432-.48.824-.72 1.176-.72.368 0 .68.072.936.216.272.144.568.52.888 1.128.208.416.448 1.024.72 1.824.272.784.544 1.672.816 2.664.272.976.536 1.984.792 3.024.256 1.024.48 1.976.672 2.856.64-2.96 1.2-5.552 1.68-7.776.48-2.24.848-3.992 1.104-5.256.272-1.264.416-1.928.432-1.992.096-.416.2-.672.312-.768s.272-.144.48-.144c.288 0 .568.12.84.36.288.224.432.536.432.936 0 .192-.048.632-.144 1.32-.08.688-.208 1.552-.384 2.592-.16 1.024-.368 2.168-.624 3.432-.256 1.248-.552 2.552-.888 3.912-.336 1.344-.712 2.68-1.128 4.008-.4 1.312-.84 2.552-1.32 3.72-.176.448-.384.752-.624.912-.224.176-.424.264-.6.264z" fill="#fff"/><path d="m111.793 184v-9.455h3.619c.683 0 1.251.108 1.703.324.456.212.796.503 1.021.872.227.369.341.788.341 1.256 0 .385-.074.714-.221.988-.148.271-.347.491-.596.66s-.528.291-.835.365v.092c.335.018.657.121.964.309.311.185.565.446.762.785s.296.748.296 1.228c0 .489-.119.929-.356 1.32-.237.388-.594.694-1.071.919s-1.077.337-1.8.337zm1.712-1.431h1.842c.622 0 1.07-.119 1.344-.356.277-.24.415-.547.415-.923 0-.28-.069-.532-.208-.757-.138-.228-.335-.406-.59-.535-.256-.133-.561-.199-.915-.199h-1.888zm0-4.003h1.695c.295 0 .561-.053.798-.161.237-.111.423-.266.559-.466.138-.204.208-.444.208-.721 0-.366-.13-.667-.388-.904-.256-.237-.636-.356-1.14-.356h-1.732zm6.615 5.434v-7.091h1.671v7.091zm.84-8.097c-.265 0-.493-.088-.683-.263-.191-.179-.287-.393-.287-.642 0-.252.096-.466.287-.642.19-.178.418-.268.683-.268.268 0 .495.09.683.268.191.176.286.39.286.642 0 .249-.095.463-.286.642-.188.175-.415.263-.683.263zm5.546 8.235c-.711 0-1.325-.147-1.842-.443-.514-.298-.91-.72-1.187-1.265-.277-.547-.415-1.192-.415-1.934 0-.729.138-1.369.415-1.92.28-.554.671-.985 1.173-1.293.501-.311 1.091-.466 1.768-.466.437 0 .849.071 1.237.212.391.139.736.354 1.034.646.302.293.539.665.711 1.118.172.449.259.984.259 1.606v.513h-5.813v-1.127h4.211c-.003-.32-.073-.605-.208-.854-.135-.252-.325-.451-.568-.595-.24-.145-.52-.217-.84-.217-.342 0-.642.083-.9.249-.259.163-.46.378-.605.646-.142.265-.214.556-.217.873v.983c0 .412.075.766.226 1.062.151.292.362.517.633.674.27.154.587.231.951.231.243 0 .463-.034.66-.102.197-.071.368-.174.512-.309.145-.136.254-.303.328-.503l1.56.175c-.098.412-.286.773-.563 1.08-.274.305-.625.542-1.052.711-.428.166-.918.249-1.468.249zm6.095-4.293v4.155h-1.672v-7.091h1.598v1.205h.083c.163-.397.423-.712.78-.946.36-.234.805-.351 1.334-.351.489 0 .916.104 1.279.314.366.209.649.512.849.909.203.397.303.879.3 1.445v4.515h-1.671v-4.256c0-.474-.123-.845-.369-1.113-.243-.268-.58-.402-1.011-.402-.292 0-.553.065-.78.194-.225.126-.402.31-.531.55-.126.24-.189.531-.189.872zm9.246 4.293c-.71 0-1.324-.147-1.841-.443-.514-.298-.91-.72-1.187-1.265-.277-.547-.415-1.192-.415-1.934 0-.729.138-1.369.415-1.92.28-.554.671-.985 1.173-1.293.501-.311 1.091-.466 1.768-.466.437 0 .849.071 1.237.212.391.139.736.354 1.034.646.302.293.539.665.711 1.118.172.449.259.984.259 1.606v.513h-5.813v-1.127h4.211c-.003-.32-.073-.605-.208-.854-.136-.252-.325-.451-.568-.595-.24-.145-.52-.217-.84-.217-.342 0-.642.083-.9.249-.259.163-.46.378-.605.646-.142.265-.214.556-.217.873v.983c0 .412.075.766.226 1.062.151.292.362.517.633.674.27.154.587.231.951.231.243 0 .463-.034.66-.102.197-.071.368-.174.512-.309.145-.136.254-.303.328-.503l1.56.175c-.098.412-.286.773-.563 1.08-.274.305-.625.542-1.052.711-.428.166-.918.249-1.469.249zm10.029-5.355-1.524.167c-.043-.154-.118-.299-.226-.434-.105-.136-.246-.245-.425-.328-.178-.083-.397-.125-.655-.125-.348 0-.64.076-.877.226-.234.151-.35.347-.347.587-.003.206.073.374.227.503.157.129.415.235.775.318l1.21.259c.671.145 1.169.374 1.496.688.329.314.495.725.498 1.232-.003.447-.134.841-.392 1.182-.256.339-.611.603-1.067.794-.455.191-.978.286-1.569.286-.868 0-1.567-.181-2.096-.544-.53-.366-.845-.876-.947-1.528l1.63-.157c.074.32.231.561.471.725.24.163.552.244.937.244.397 0 .716-.081.956-.244.243-.164.364-.365.364-.605 0-.203-.078-.371-.235-.503-.154-.133-.394-.234-.72-.305l-1.21-.254c-.68-.142-1.183-.38-1.509-.716-.327-.338-.488-.766-.485-1.283-.003-.437.115-.816.355-1.136.244-.323.581-.572 1.011-.747.434-.179.934-.268 1.501-.268.831 0 1.485.177 1.962.531.48.354.777.832.891 1.435zm4.928-1.874v1.293h-4.076v-1.293zm-3.07-1.699h1.671v6.657c0 .225.034.397.102.517.07.117.163.197.277.24s.24.065.378.065c.105 0 .2-.008.286-.023.09-.016.157-.029.204-.042l.281 1.307c-.089.031-.217.064-.383.101-.163.037-.363.059-.6.065-.419.012-.796-.051-1.131-.189-.336-.142-.602-.36-.799-.656-.194-.295-.289-.665-.286-1.108zm6.365 8.933c-.449 0-.854-.08-1.214-.24-.357-.163-.64-.403-.85-.72-.206-.317-.309-.708-.309-1.173 0-.4.074-.731.222-.992.148-.262.349-.471.605-.628.255-.157.543-.276.863-.356.323-.083.657-.143 1.002-.18.415-.043.752-.081 1.011-.115.258-.037.446-.092.563-.166.12-.077.18-.196.18-.356v-.027c0-.348-.103-.617-.309-.808-.207-.191-.504-.286-.891-.286-.41 0-.734.089-.974.267-.237.179-.398.39-.481.633l-1.56-.222c.123-.431.326-.791.609-1.08.284-.292.63-.511 1.039-.656.409-.147.862-.221 1.357-.221.342 0 .682.04 1.021.12.338.08.647.212.927.397.281.181.505.429.675.743.172.314.258.706.258 1.177v4.746h-1.607v-.974h-.055c-.101.197-.245.382-.429.554-.182.169-.411.306-.688.411-.274.101-.596.152-.965.152zm.434-1.228c.335 0 .626-.066.873-.198.246-.136.435-.314.567-.536.136-.221.203-.463.203-.725v-.835c-.052.043-.141.083-.267.12-.123.037-.262.069-.416.097-.154.027-.306.052-.457.074-.151.021-.281.04-.392.055-.249.034-.473.089-.67.166s-.352.185-.466.323c-.114.136-.171.311-.171.527 0 .307.113.54.337.697.225.157.511.235.859.235zm4.847 1.085v-7.091h1.621v1.182h.074c.129-.409.351-.725.664-.946.317-.225.679-.337 1.085-.337.093 0 .196.004.31.013.117.007.214.017.29.033v1.537c-.07-.025-.183-.046-.337-.065-.15-.021-.297-.032-.438-.032-.305 0-.579.066-.822.199-.24.129-.429.309-.568.54-.138.23-.207.497-.207.798v4.169zm9.381 0h-1.828l3.329-9.455h2.114l3.333 9.455h-1.828l-2.525-7.516h-.074zm.06-3.707h4.986v1.376h-4.986zm9.588-.448v4.155h-1.671v-7.091h1.597v1.205h.083c.163-.397.423-.712.78-.946.36-.234.805-.351 1.334-.351.49 0 .916.104 1.279.314.366.209.649.512.849.909.204.397.304.879.301 1.445v4.515h-1.672v-4.256c0-.474-.123-.845-.369-1.113-.243-.268-.58-.402-1.011-.402-.292 0-.552.065-.78.194-.225.126-.402.31-.531.55-.126.24-.189.531-.189.872zm6.107 4.155v-7.091h1.672v7.091zm.841-8.097c-.265 0-.493-.088-.684-.263-.19-.179-.286-.393-.286-.642 0-.252.096-.466.286-.642.191-.178.419-.268.684-.268.267 0 .495.09.683.268.191.176.286.39.286.642 0 .249-.095.463-.286.642-.188.175-.416.263-.683.263zm2.406 8.097v-7.091h1.597v1.205h.083c.148-.406.393-.723.735-.951.341-.231.749-.346 1.223-.346.48 0 .885.117 1.214.351.332.23.566.546.702.946h.074c.157-.394.421-.708.794-.942.375-.237.82-.355 1.334-.355.652 0 1.185.206 1.597.618.412.413.619 1.014.619 1.805v4.76h-1.676v-4.501c0-.44-.117-.762-.351-.965-.234-.206-.52-.309-.859-.309-.403 0-.718.126-.946.378-.225.25-.337.574-.337.974v4.423h-1.639v-4.57c0-.367-.111-.659-.332-.877-.219-.219-.505-.328-.859-.328-.24 0-.458.061-.655.184-.197.12-.354.291-.471.513-.117.218-.176.474-.176.766v4.312zm13.565.143c-.45 0-.854-.08-1.215-.24-.357-.163-.64-.403-.849-.72-.206-.317-.309-.708-.309-1.173 0-.4.074-.731.221-.992.148-.262.35-.471.605-.628s.543-.276.863-.356c.323-.083.657-.143 1.002-.18.416-.043.753-.081 1.011-.115.259-.037.446-.092.563-.166.12-.077.18-.196.18-.356v-.027c0-.348-.103-.617-.309-.808s-.503-.286-.891-.286c-.409 0-.734.089-.974.267-.237.179-.397.39-.48.633l-1.56-.222c.123-.431.326-.791.609-1.08.283-.292.629-.511 1.039-.656.409-.147.861-.221 1.357-.221.341 0 .682.04 1.02.12.339.08.648.212.928.397.28.181.505.429.674.743.172.314.259.706.259 1.177v4.746h-1.607v-.974h-.055c-.102.197-.245.382-.43.554-.181.169-.411.306-.688.411-.274.101-.595.152-.964.152zm.434-1.228c.335 0 .626-.066.872-.198.246-.136.436-.314.568-.536.135-.221.203-.463.203-.725v-.835c-.052.043-.142.083-.268.12-.123.037-.261.069-.415.097-.154.027-.306.052-.457.074-.151.021-.282.04-.393.055-.249.034-.472.089-.669.166s-.352.185-.466.323c-.114.136-.171.311-.171.527 0 .307.112.54.337.697s.511.235.859.235zm6.518-8.37v9.455h-1.671v-9.455z" fill="#1e1e1e"/><path d="m124.587 207h-2.59v-8h2.672c.784 0 1.457.16 2.02.48.562.318.993.775 1.293 1.372.302.593.453 1.306.453 2.136 0 .834-.152 1.55-.457 2.149-.302.599-.74 1.06-1.313 1.383-.573.32-1.265.48-2.078.48zm-1.383-1.055h1.317c.609 0 1.116-.114 1.519-.343.404-.232.706-.567.907-1.004.2-.44.3-.977.3-1.61 0-.627-.1-1.16-.3-1.597-.198-.438-.494-.77-.887-.996-.393-.227-.882-.34-1.465-.34h-1.391zm6.517-4.945h1.168v6.391c0 .401-.073.739-.219 1.015-.143.276-.356.486-.64.629-.281.143-.629.215-1.043.215h-.117c-.039 0-.08-.001-.121-.004v-1.004h.187c.276 0 .475-.074.598-.222.125-.146.187-.359.187-.637zm.578-.926c-.203 0-.377-.067-.523-.203-.143-.138-.215-.302-.215-.492 0-.193.072-.357.215-.492.146-.138.32-.207.523-.207s.377.069.52.207c.146.135.219.299.219.492 0 .19-.073.354-.219.492-.143.136-.317.203-.52.203zm3.787 7.059c-.381 0-.724-.07-1.032-.211-.307-.143-.551-.35-.73-.621-.177-.271-.266-.603-.266-.996 0-.339.065-.618.195-.836.131-.219.306-.392.528-.52.221-.127.469-.224.742-.289s.552-.114.836-.148c.359-.042.651-.076.875-.102.224-.028.387-.074.488-.137.102-.062.153-.164.153-.304v-.028c0-.341-.097-.605-.289-.793-.191-.187-.474-.281-.852-.281-.393 0-.703.087-.93.262-.224.172-.379.363-.465.574l-1.097-.25c.13-.364.32-.659.57-.883.253-.226.543-.39.871-.492.328-.104.673-.156 1.035-.156.24 0 .494.029.762.086.271.054.523.156.758.304.237.149.431.361.582.637.151.274.226.629.226 1.067v3.984h-1.14v-.82h-.047c-.076.151-.189.299-.34.445s-.345.267-.582.363c-.237.097-.521.145-.851.145zm.253-.938c.323 0 .599-.063.829-.191.231-.128.407-.294.527-.5.122-.208.183-.431.183-.668v-.774c-.041.042-.122.081-.242.118-.117.034-.251.063-.402.09-.151.023-.298.045-.441.066-.144.018-.263.034-.36.047-.226.028-.433.077-.621.144-.185.068-.333.166-.445.293-.11.125-.164.292-.164.5 0 .289.106.508.32.657.214.145.486.218.816.218zm5.31-2.758v3.563h-1.168v-6h1.121v.977h.074c.138-.318.355-.573.649-.766.297-.193.67-.289 1.121-.289.409 0 .767.086 1.074.258.307.169.546.422.715.757.169.336.254.752.254 1.247v3.816h-1.168v-3.676c0-.435-.113-.775-.34-1.019-.226-.248-.538-.371-.933-.371-.271 0-.512.058-.723.175-.208.118-.374.289-.496.516-.12.224-.18.495-.18.812zm7.801 5.938c-.477 0-.887-.062-1.231-.187-.341-.125-.619-.291-.835-.497-.217-.205-.378-.431-.485-.675l1.004-.414c.07.114.164.235.281.363.12.13.282.241.485.332.205.091.47.137.793.137.442 0 .808-.108 1.097-.325.289-.213.434-.554.434-1.023v-1.18h-.074c-.071.128-.172.27-.305.426-.13.156-.31.292-.539.406-.229.115-.527.172-.895.172-.474 0-.901-.111-1.281-.332-.377-.224-.677-.553-.898-.988-.219-.438-.328-.975-.328-1.613s.108-1.185.324-1.641c.219-.456.518-.805.898-1.047.38-.245.811-.367 1.293-.367.373 0 .673.062.903.187.229.123.407.266.535.43.13.164.23.309.301.434h.085v-.973h1.145v6.133c0 .515-.12.939-.359 1.269-.24.331-.564.576-.973.735-.406.159-.865.238-1.375.238zm-.012-3.434c.336 0 .62-.078.852-.234.234-.159.411-.385.531-.68.122-.297.184-.652.184-1.066 0-.404-.06-.759-.18-1.066-.12-.308-.296-.547-.527-.719-.232-.175-.519-.262-.86-.262-.351 0-.644.091-.879.274-.234.179-.411.424-.531.734-.117.31-.176.656-.176 1.039 0 .393.06.738.18 1.035s.297.529.531.695c.237.167.529.25.875.25zm6.692 1.18c-.563 0-1.054-.129-1.473-.387-.419-.257-.745-.618-.976-1.082-.232-.463-.348-1.005-.348-1.625 0-.622.116-1.166.348-1.632.231-.467.557-.829.976-1.086.419-.258.91-.387 1.473-.387.562 0 1.053.129 1.472.387.42.257.745.619.977 1.086.232.466.348 1.01.348 1.632 0 .62-.116 1.162-.348 1.625-.232.464-.557.825-.977 1.082-.419.258-.91.387-1.472.387zm.004-.98c.364 0 .666-.097.906-.289.239-.193.417-.45.531-.77.117-.32.176-.673.176-1.059 0-.382-.059-.734-.176-1.054-.114-.323-.292-.582-.531-.778-.24-.195-.542-.293-.906-.293-.368 0-.672.098-.914.293-.24.196-.418.455-.536.778-.114.32-.171.672-.171 1.054 0 .386.057.739.171 1.059.118.32.296.577.536.77.242.192.546.289.914.289zm6.859.859v-8h2.93c.568 0 1.038.094 1.41.281.372.185.651.436.836.754.185.315.277.671.277 1.067 0 .333-.061.614-.183.843-.123.227-.287.409-.492.547-.204.136-.428.235-.672.297v.078c.265.013.524.099.777.258.255.156.466.379.633.668s.25.641.25 1.055c0 .409-.097.776-.289 1.101-.19.323-.485.58-.883.77-.398.187-.908.281-1.527.281zm1.207-1.035h1.742c.579 0 .993-.112 1.243-.336s.375-.504.375-.84c0-.253-.064-.484-.192-.695-.127-.211-.31-.379-.547-.504-.234-.125-.513-.188-.836-.188h-1.785zm0-3.504h1.617c.271 0 .515-.052.731-.156.219-.104.392-.25.519-.438.131-.19.196-.414.196-.672 0-.33-.116-.608-.348-.832s-.587-.336-1.066-.336h-1.649zm7.522 4.672c-.38 0-.724-.07-1.031-.211-.308-.143-.551-.35-.731-.621-.177-.271-.266-.603-.266-.996 0-.339.066-.618.196-.836.13-.219.306-.392.527-.52.221-.127.469-.224.742-.289.274-.065.552-.114.836-.148.36-.042.651-.076.875-.102.224-.028.387-.074.489-.137.101-.062.152-.164.152-.304v-.028c0-.341-.096-.605-.289-.793-.19-.187-.474-.281-.852-.281-.393 0-.703.087-.929.262-.224.172-.379.363-.465.574l-1.098-.25c.13-.364.32-.659.57-.883.253-.226.543-.39.871-.492.329-.104.674-.156 1.036-.156.239 0 .493.029.761.086.271.054.524.156.758.304.237.149.431.361.582.637.151.274.227.629.227 1.067v3.984h-1.141v-.82h-.047c-.075.151-.189.299-.34.445s-.345.267-.582.363c-.237.097-.52.145-.851.145zm.254-.938c.323 0 .599-.063.828-.191.232-.128.407-.294.527-.5.123-.208.184-.431.184-.668v-.774c-.042.042-.123.081-.242.118-.118.034-.252.063-.403.09-.151.023-.298.045-.441.066-.143.018-.263.034-.36.047-.226.028-.433.077-.621.144-.185.068-.333.166-.445.293-.109.125-.164.292-.164.5 0 .289.107.508.32.657.214.145.486.218.817.218zm6.669.926c-.581 0-1.081-.131-1.5-.394-.417-.266-.737-.632-.961-1.098s-.336-1-.336-1.602c0-.609.114-1.147.344-1.613.229-.469.552-.835.968-1.098.417-.263.908-.394 1.473-.394.456 0 .862.085 1.219.254.357.166.644.401.863.703.221.302.353.655.395 1.058h-1.137c-.063-.281-.206-.523-.43-.726-.221-.203-.518-.305-.89-.305-.326 0-.611.086-.856.258-.242.169-.431.412-.566.727-.136.312-.203.682-.203 1.109 0 .437.066.815.199 1.133s.32.564.562.738c.245.175.533.262.864.262.221 0 .421-.041.601-.121.182-.084.335-.202.457-.356.125-.153.212-.338.262-.554h1.137c-.042.388-.168.734-.379 1.039-.211.304-.494.544-.848.718-.352.175-.764.262-1.238.262zm4.667-2.156-.008-1.426h.203l2.391-2.539h1.398l-2.726 2.891h-.184zm-1.074 2.035v-8h1.168v8zm3.789 0-2.149-2.852.805-.816 2.777 3.668zm4.552.121c-.592 0-1.101-.126-1.528-.379-.424-.255-.752-.613-.984-1.074-.229-.464-.344-1.007-.344-1.629 0-.615.115-1.156.344-1.625.232-.469.555-.835.969-1.098.416-.263.903-.394 1.461-.394.338 0 .666.056.984.168s.603.288.855.527c.253.24.452.551.598.934.146.38.219.842.219 1.386v.415h-4.77v-.875h3.625c0-.308-.062-.58-.187-.817-.125-.239-.301-.428-.528-.566-.224-.138-.487-.207-.789-.207-.328 0-.614.08-.859.242-.242.159-.43.367-.563.625-.13.255-.195.532-.195.832v.684c0 .401.07.742.211 1.023.143.281.343.496.598.644.255.146.553.219.894.219.222 0 .423-.031.606-.094.182-.065.34-.161.472-.289.133-.127.235-.285.305-.472l1.106.199c-.089.326-.248.611-.477.855-.227.243-.512.431-.855.567-.342.133-.731.199-1.168.199zm4.917-3.684v3.563h-1.168v-6h1.121v.977h.074c.138-.318.354-.573.648-.766.297-.193.671-.289 1.122-.289.408 0 .766.086 1.074.258.307.169.545.422.715.757.169.336.253.752.253 1.247v3.816h-1.167v-3.676c0-.435-.114-.775-.34-1.019-.227-.248-.538-.371-.934-.371-.271 0-.512.058-.723.175-.208.118-.373.289-.496.516-.119.224-.179.495-.179.812zm7.531 3.68c-.484 0-.917-.124-1.297-.371-.378-.25-.674-.605-.891-1.066-.213-.464-.32-1.02-.32-1.668 0-.649.108-1.203.324-1.664.219-.461.519-.814.899-1.059s.811-.367 1.293-.367c.372 0 .672.062.898.187.229.123.406.266.531.43.128.164.227.309.297.434h.071v-2.973h1.168v8h-1.141v-.934h-.098c-.07.128-.172.274-.304.438-.131.164-.31.307-.539.43-.23.122-.526.183-.891.183zm.258-.996c.336 0 .62-.088.851-.266.235-.179.412-.428.532-.746.122-.317.183-.687.183-1.109 0-.417-.06-.781-.179-1.094-.12-.312-.296-.556-.528-.73-.232-.175-.518-.262-.859-.262-.352 0-.645.091-.879.274-.234.182-.412.43-.531.746-.118.315-.176.67-.176 1.066 0 .401.06.762.18 1.082.119.32.296.574.531.762.237.185.528.277.875.277z" fill="#1e1e1e"/></g><path d="m179 220c0-1.932-1.568-3.5-3.5-3.5h-25c-1.932 0-3.5 1.568-3.5 3.5v16c0 1.932 1.568 3.5 3.5 3.5h25c1.932 0 3.5-1.568 3.5-3.5z" fill="none" stroke="#9747ff"/><path d="m156.125 231h-1.318l2.009-5.818h1.585l2.006 5.818h-1.319l-1.457-4.489h-.045zm-.082-2.287h3.114v.96h-3.114zm6.744 2.287v-5.818h2.295c.442 0 .818.084 1.128.253.311.166.548.398.71.696.165.295.248.636.248 1.022 0 .387-.084.728-.25 1.023-.167.296-.409.526-.725.69-.314.165-.695.248-1.142.248h-1.463v-.986h1.264c.237 0 .432-.041.585-.122.156-.084.271-.198.347-.344.078-.148.117-.317.117-.509 0-.193-.039-.361-.117-.505-.076-.146-.191-.259-.347-.338-.155-.082-.352-.122-.59-.122h-.83v4.812zm8.09-5.818v5.818h-1.23v-5.818z" fill="#9747ff" fill-rule="nonzero"/><path d="m122.209 255.975h-2.61l-.629 2.025h-.994l2.525-7.82h.832l2.482 7.82h-.988zm-2.342-.865h2.079l-1.032-3.394zm4.906-.064c0-.433.054-.831.162-1.192.111-.366.268-.679.472-.94.201-.262.444-.466.731-.613.286-.147.607-.22.961-.22.347 0 .65.059.908.177.261.115.487.283.677.505v-3.013h.993v8.25h-.913l-.043-.612c-.193.236-.424.415-.693.537-.268.122-.582.182-.94.182-.351 0-.669-.075-.956-.225-.283-.151-.524-.358-.725-.623-.2-.265-.356-.577-.467-.935-.111-.361-.167-.75-.167-1.165zm.994.113c0 .283.03.551.091.805.061.255.156.478.285.672.125.193.286.347.483.462.197.111.434.166.709.166.333 0 .609-.075.828-.225.218-.151.392-.353.521-.607v-2.697c-.129-.236-.303-.429-.521-.58-.219-.154-.491-.231-.817-.231-.279 0-.519.058-.72.172-.197.115-.358.269-.483.462-.129.197-.224.424-.285.682-.061.254-.091.523-.091.806zm6.136-2.971.027.548c.118-.204.272-.363.462-.478.194-.114.426-.173.698-.177.154 0 .292.018.414.054.125.032.235.08.328.145.068.05.129.111.182.182.058.072.106.153.145.242.05-.082.109-.159.177-.231.069-.071.142-.134.221-.188.1-.061.211-.109.333-.145.125-.036.261-.055.408-.059.2 0 .381.03.542.091.162.058.298.144.409.258.121.129.214.297.279.505.064.204.097.446.097.725v4.34h-.946v-4.351c0-.121-.014-.229-.043-.322-.028-.093-.07-.17-.123-.231-.058-.057-.129-.1-.215-.129-.082-.028-.179-.043-.29-.043-.118 0-.22.016-.306.049-.086.032-.158.075-.215.129-.057.057-.102.123-.134.198-.033.072-.054.152-.065.242v4.458h-.945v-4.356c0-.122-.014-.229-.043-.322-.025-.093-.066-.17-.124-.231-.053-.057-.121-.099-.204-.124-.079-.028-.172-.043-.279-.043-.118 0-.222.015-.312.043-.086.025-.159.063-.22.113-.046.039-.088.084-.123.134-.033.05-.059.104-.081.161v4.625h-.945v-5.812zm6.185 0h2.97v4.953h1.896v.859h-4.866v-.859h1.977v-4.088h-1.977zm1.848-1.525c0-.086.012-.166.037-.242.029-.075.072-.139.129-.193.047-.047.106-.082.177-.107.076-.029.16-.043.253-.043s.175.014.247.043c.072.025.131.06.177.107.058.05.1.113.129.188s.043.158.043.247c0 .161-.05.295-.15.403-.101.107-.249.161-.446.161-.201 0-.351-.054-.451-.161-.097-.108-.145-.242-.145-.403zm4.482 7.337v-5.812h.891l.07.86c.086-.122.179-.233.279-.333.104-.104.214-.194.328-.269.172-.114.358-.202.559-.263.204-.064.419-.098.644-.102.305 0 .58.043.827.129.251.086.464.22.64.403.175.182.309.415.402.698.097.279.145.612.145.999v3.69h-.993v-3.668c0-.258-.029-.477-.086-.656-.058-.179-.142-.324-.253-.435-.114-.111-.254-.191-.419-.241-.161-.051-.347-.076-.558-.076-.183 0-.353.027-.51.081-.158.05-.303.12-.436.209-.107.079-.207.17-.3.274-.09.104-.169.219-.237.344v4.168zm6.641-5.812h2.97v4.953h1.896v.859h-4.866v-.859h1.977v-4.088h-1.977zm1.848-1.525c0-.086.012-.166.037-.242.029-.075.072-.139.129-.193.047-.047.106-.082.177-.107.076-.029.16-.043.253-.043s.175.014.247.043c.071.025.131.06.177.107.057.05.1.113.129.188s.043.158.043.247c0 .161-.05.295-.15.403-.101.107-.249.161-.446.161-.201 0-.351-.054-.451-.161-.097-.108-.145-.242-.145-.403zm8.343 5.795c0-.118-.023-.223-.069-.316-.047-.097-.126-.185-.237-.264-.111-.078-.258-.15-.44-.214-.183-.068-.41-.129-.682-.183-.333-.068-.638-.15-.913-.247-.272-.097-.505-.213-.699-.349-.197-.133-.349-.288-.456-.468-.108-.182-.161-.393-.161-.633 0-.237.055-.457.166-.661.111-.208.267-.388.468-.542.2-.154.438-.276.714-.366.279-.089.585-.134.918-.134.358 0 .681.047.967.14.287.093.53.222.731.386.2.165.354.358.462.581.111.218.166.454.166.708h-.994c0-.125-.032-.247-.096-.365-.065-.121-.154-.229-.269-.322-.114-.093-.254-.168-.419-.226-.161-.057-.344-.086-.548-.086-.211 0-.397.024-.558.07-.158.047-.289.109-.392.188-.108.079-.188.17-.242.274s-.081.211-.081.322c0 .115.022.217.065.307.043.089.118.17.225.241.104.072.244.136.419.194.179.057.405.112.677.166.358.075.679.163.962.263.282.097.521.213.714.349.193.14.34.301.44.484.104.183.156.394.156.634 0 .257-.059.492-.177.703-.115.212-.276.392-.484.543-.207.15-.456.267-.746.349s-.607.123-.951.123c-.394 0-.745-.051-1.053-.155-.307-.108-.567-.249-.778-.425-.215-.172-.38-.372-.495-.601-.111-.229-.166-.468-.166-.715h.994c.014.205.068.376.161.516.096.14.216.252.36.338.139.086.295.147.467.183s.342.054.51.054c.265 0 .496-.031.693-.092.197-.064.351-.152.462-.263.068-.068.12-.143.156-.225.036-.083.053-.17.053-.264zm4.977-5.677v1.407h2.212v.769h-2.212v3.158c0 .225.028.412.086.558.057.147.136.264.236.349.1.09.215.153.344.188.132.036.272.054.419.054.107 0 .218-.005.333-.016.114-.014.227-.03.338-.048.107-.018.208-.036.301-.054.096-.021.175-.039.236-.054l.14.704c-.083.05-.183.095-.301.134-.118.036-.247.066-.387.091-.139.029-.288.051-.446.065-.154.014-.308.021-.462.021-.257 0-.499-.035-.725-.107-.222-.075-.415-.193-.58-.354-.164-.158-.295-.362-.392-.613-.093-.254-.139-.56-.139-.918v-3.158h-1.526v-.769h1.526v-1.407zm7.941 1.3c.182 0 .372.013.569.038.2.025.351.059.451.102l-.134.972c-.194-.043-.378-.074-.553-.091-.172-.022-.353-.033-.543-.033-.243 0-.464.031-.66.092-.197.057-.369.143-.516.257-.133.101-.249.224-.349.371-.097.143-.177.304-.242.483v3.728h-.999v-5.812h.945l.043.779.006.145c.236-.318.519-.569.848-.752.333-.186.711-.279 1.134-.279zm6.496 5.919c-.04-.075-.072-.168-.097-.279-.021-.115-.037-.233-.048-.355-.1.1-.213.195-.339.285-.121.089-.256.168-.402.236-.151.068-.31.122-.478.161-.169.04-.348.059-.538.059-.308 0-.587-.044-.837-.134-.248-.089-.457-.211-.629-.365-.175-.15-.311-.33-.408-.537-.093-.211-.14-.439-.14-.682 0-.319.063-.598.188-.838.129-.24.31-.441.543-.602.232-.157.512-.275.838-.354.329-.079.696-.118 1.101-.118h1.085v-.457c0-.175-.033-.333-.097-.473-.064-.139-.156-.259-.274-.359-.118-.097-.263-.172-.435-.226-.168-.054-.358-.081-.569-.081-.197 0-.375.025-.532.076-.154.05-.285.116-.392.198-.108.083-.192.181-.253.296-.057.111-.086.227-.086.349h-.999c.004-.211.058-.419.162-.623.107-.204.261-.389.461-.553.197-.162.437-.292.72-.393.287-.1.611-.15.972-.15.33 0 .636.041.919.124.283.078.528.198.736.359.204.165.365.369.483.613.118.243.177.528.177.854v2.701c0 .194.018.4.054.618.036.215.086.403.15.564v.086zm-1.757-.757c.194 0 .375-.025.543-.076.168-.05.322-.116.462-.198.136-.083.254-.176.354-.28.101-.107.179-.218.237-.333v-1.176h-.924c-.344 0-.645.031-.903.091-.254.058-.456.147-.606.269-.108.086-.19.188-.248.306-.053.118-.08.253-.08.403 0 .143.023.276.07.397.05.122.123.226.22.312.097.09.218.159.365.209.147.051.317.076.51.076zm6.899.059c.18 0 .353-.029.521-.086.172-.057.325-.138.457-.242.133-.1.238-.218.317-.354.082-.14.125-.29.129-.452h.94c-.004.258-.072.505-.204.742-.129.232-.303.437-.521.612-.219.179-.469.322-.752.43-.283.104-.579.155-.887.155-.44 0-.825-.078-1.154-.236-.33-.157-.604-.371-.822-.639-.222-.265-.389-.571-.5-.919-.111-.35-.166-.719-.166-1.106v-.226c0-.383.055-.75.166-1.101s.278-.66.5-.929c.218-.265.492-.476.822-.634.329-.157.714-.236 1.154-.236.344 0 .659.056.946.167.29.107.54.254.752.44.207.19.37.414.489.671.118.258.177.534.177.828h-.94c-.004-.176-.043-.341-.118-.495-.072-.157-.17-.295-.296-.413-.125-.118-.275-.211-.451-.279-.172-.069-.358-.103-.559-.103-.307 0-.567.063-.778.188-.208.122-.376.282-.505.478-.129.201-.222.425-.28.672-.053.247-.08.496-.08.746v.226c0 .254.027.507.08.757.058.247.151.469.28.666.125.201.292.364.499.489.212.122.473.183.784.183zm4.166-5.114h2.97v4.953h1.896v.859h-4.866v-.859h1.976v-4.088h-1.976zm1.847-1.525c0-.086.013-.166.038-.242.029-.075.071-.139.129-.193.046-.047.105-.082.177-.107.075-.029.159-.043.252-.043.094 0 .176.014.248.043.071.025.13.06.177.107.057.05.1.113.129.188.028.075.043.158.043.247 0 .161-.05.295-.151.403-.1.107-.249.161-.446.161-.2 0-.35-.054-.451-.161-.096-.108-.145-.242-.145-.403zm4.203 4.378c0-.419.061-.808.183-1.166.121-.362.297-.675.526-.94.226-.265.501-.473.827-.623.326-.154.693-.231 1.101-.231.412 0 .781.077 1.107.231.329.15.608.358.838.623.225.265.399.578.521.94.121.358.182.747.182 1.166v.118c0 .419-.061.807-.182 1.165-.122.358-.296.67-.521.935-.23.265-.507.472-.833.623-.326.15-.693.225-1.101.225-.412 0-.782-.075-1.112-.225-.326-.151-.601-.358-.827-.623-.229-.265-.405-.577-.526-.935-.122-.358-.183-.746-.183-1.165zm.994.118c0 .286.034.56.102.821.068.258.172.486.311.683.136.197.308.352.516.467.208.114.449.172.725.172.272 0 .51-.058.714-.172.208-.115.382-.27.521-.467.136-.197.238-.425.306-.683.068-.261.102-.535.102-.821v-.118c0-.283-.035-.554-.107-.812-.068-.261-.17-.49-.306-.687-.14-.197-.313-.353-.521-.467-.204-.118-.444-.178-.72-.178s-.515.06-.72.178c-.204.114-.374.27-.51.467-.139.197-.243.426-.311.687-.068.258-.102.529-.102.812zm2.175-5.226h1.203l-1.439 1.428h-.752zm3.596 8.067v-5.812h.891l.07.86c.086-.122.179-.233.279-.333.104-.104.214-.194.328-.269.172-.114.358-.202.559-.263.204-.064.419-.098.644-.102.305 0 .58.043.827.129.251.086.464.22.64.403.175.182.309.415.402.698.097.279.145.612.145.999v3.69h-.993v-3.668c0-.258-.029-.477-.086-.656s-.142-.324-.253-.435c-.114-.111-.254-.191-.419-.241-.161-.051-.347-.076-.558-.076-.183 0-.353.027-.51.081-.158.05-.303.12-.435.209-.108.079-.208.17-.301.274-.09.104-.169.219-.237.344v4.168z" fill="#9747ff" fill-rule="nonzero"/><path d="m557.5 96c0-4.139-3.361-7.5-7.5-7.5h-134c-4.139 0-7.5 3.361-7.5 7.5v175c0 4.139 3.361 7.5 7.5 7.5h134c4.139 0 7.5-3.361 7.5-7.5z" fill="#f1e5ff"/><path d="m557.5 96c0-4.139-3.361-7.5-7.5-7.5h-134c-4.139 0-7.5 3.361-7.5 7.5v175c0 4.139 3.361 7.5 7.5 7.5h134c4.139 0 7.5-3.361 7.5-7.5z" fill="none" stroke="#d9b8ff"/><circle cx="483" cy="128" fill="#9747ff" r="28"/><path d="m485.268 138.44c-.352 0-.648-.136-.888-.408-.224-.272-.336-.72-.336-1.344 0-.208.024-.432.072-.672.048-.256.136-.512.264-.768-.8-1.984-1.472-3.912-2.016-5.784s-1.008-3.832-1.392-5.88c-.512 1.056-1 2.152-1.464 3.288-.448 1.12-.872 2.216-1.272 3.288s-.76 2.072-1.08 3-.6 1.728-.84 2.4c-.256.8-.512 1.336-.768 1.608-.256.288-.52.432-.792.432-.368 0-.648-.088-.84-.264-.176-.176-.264-.488-.264-.936 0-.336.088-.856.264-1.56s.416-1.52.72-2.448c.32-.928.68-1.904 1.08-2.928s.824-2.024 1.272-3c.464-.976.928-1.856 1.392-2.64.464-.8.904-1.432 1.32-1.896.432-.48.824-.72 1.176-.72.368 0 .68.072.936.216.272.144.568.52.888 1.128.208.416.448 1.024.72 1.824.272.784.544 1.672.816 2.664.272.976.536 1.984.792 3.024.256 1.024.48 1.976.672 2.856.64-2.96 1.2-5.552 1.68-7.776.48-2.24.848-3.992 1.104-5.256.272-1.264.416-1.928.432-1.992.096-.416.2-.672.312-.768s.272-.144.48-.144c.288 0 .568.12.84.36.288.224.432.536.432.936 0 .192-.048.632-.144 1.32-.08.688-.208 1.552-.384 2.592-.16 1.024-.368 2.168-.624 3.432-.256 1.248-.552 2.552-.888 3.912-.336 1.344-.712 2.68-1.128 4.008-.4 1.312-.84 2.552-1.32 3.72-.176.448-.384.752-.624.912-.224.176-.424.264-.6.264z" fill="#fff" fill-rule="nonzero"/><path d="m453.768 174.545h2.095l2.807 6.851h.111l2.807-6.851h2.096v9.455h-1.644v-6.495h-.087l-2.613 6.467h-1.228l-2.613-6.481h-.088v6.509h-1.643zm13.604 9.598c-.449 0-.854-.08-1.214-.24-.357-.163-.64-.403-.849-.72-.206-.317-.31-.708-.31-1.173 0-.4.074-.731.222-.992.148-.262.349-.471.605-.628.255-.157.543-.276.863-.356.323-.083.657-.143 1.002-.18.415-.043.752-.081 1.011-.115.258-.037.446-.092.563-.166.12-.077.18-.196.18-.356v-.027c0-.348-.103-.617-.309-.808s-.503-.286-.891-.286c-.409 0-.734.089-.974.267-.237.179-.397.39-.48.633l-1.561-.222c.123-.431.327-.791.61-1.08.283-.292.629-.511 1.038-.656.41-.147.862-.221 1.358-.221.341 0 .681.04 1.02.12.338.08.648.212.928.397.28.181.505.429.674.743.172.314.258.706.258 1.177v4.746h-1.606v-.974h-.056c-.101.197-.244.382-.429.554-.182.169-.411.306-.688.411-.274.101-.595.152-.965.152zm.434-1.228c.336 0 .627-.066.873-.198.246-.136.435-.314.568-.536.135-.221.203-.463.203-.725v-.835c-.053.043-.142.083-.268.12-.123.037-.262.069-.415.097-.154.027-.307.052-.457.074-.151.021-.282.04-.393.055-.249.034-.472.089-.669.166s-.353.185-.467.323c-.113.136-.17.311-.17.527 0 .307.112.54.337.697.224.157.511.235.858.235zm10.452-4.132-1.523.167c-.043-.154-.119-.299-.227-.434-.104-.136-.246-.245-.424-.328-.179-.083-.397-.125-.656-.125-.348 0-.64.076-.877.226-.234.151-.349.347-.346.587-.003.206.072.374.226.503.157.129.416.235.776.318l1.209.259c.671.145 1.17.374 1.496.688.329.314.495.725.498 1.232-.003.447-.133.841-.392 1.182-.255.339-.611.603-1.066.794-.456.191-.979.286-1.57.286-.868 0-1.566-.181-2.096-.544-.529-.366-.845-.876-.946-1.528l1.629-.157c.074.32.231.561.471.725.24.163.553.244.937.244.397 0 .716-.081.956-.244.243-.164.365-.365.365-.605 0-.203-.079-.371-.236-.503-.154-.133-.394-.234-.72-.305l-1.209-.254c-.681-.142-1.184-.38-1.51-.716-.326-.338-.488-.766-.485-1.283-.003-.437.116-.816.356-1.136.243-.323.58-.572 1.011-.747.434-.179.934-.268 1.5-.268.831 0 1.485.177 1.962.531.48.354.777.832.891 1.435zm4.481 5.355c-.708 0-1.316-.155-1.824-.466-.505-.311-.894-.74-1.168-1.288-.271-.551-.406-1.185-.406-1.902 0-.72.138-1.355.415-1.906.277-.554.668-.985 1.173-1.293.508-.311 1.108-.466 1.8-.466.576 0 1.085.106 1.528.318.447.21.802.507 1.067.891.264.382.415.828.452 1.339h-1.597c-.065-.342-.219-.626-.462-.854-.24-.231-.561-.346-.965-.346-.341 0-.641.092-.9.277-.258.181-.46.443-.605.785-.141.341-.212.751-.212 1.228 0 .483.071.898.212 1.246.142.345.34.611.596.799.258.184.562.277.909.277.247 0 .467-.047.661-.139.197-.095.361-.232.494-.411.132-.178.223-.395.272-.651h1.597c-.04.502-.188.947-.443 1.335-.255.384-.603.686-1.043.904-.44.216-.957.323-1.551.323zm7.359 0c-.692 0-1.292-.152-1.8-.457-.508-.304-.902-.73-1.182-1.278-.277-.548-.415-1.188-.415-1.921 0-.732.138-1.374.415-1.925.28-.551.674-.979 1.182-1.283.508-.305 1.108-.457 1.8-.457.693 0 1.293.152 1.801.457.508.304.9.732 1.177 1.283.28.551.42 1.193.42 1.925 0 .733-.14 1.373-.42 1.921-.277.548-.669.974-1.177 1.278-.508.305-1.108.457-1.801.457zm.01-1.338c.375 0 .689-.103.941-.31.253-.209.441-.489.564-.84.126-.351.189-.742.189-1.172 0-.434-.063-.827-.189-1.178-.123-.354-.311-.635-.564-.844-.252-.21-.566-.314-.941-.314-.385 0-.705.104-.961.314-.252.209-.441.49-.567.844-.123.351-.185.744-.185 1.178 0 .43.062.821.185 1.172.126.351.315.631.567.84.256.207.576.31.961.31zm8.204-5.891v1.293h-4.076v-1.293zm-3.07-1.699h1.672v6.657c0 .225.034.397.101.517.071.117.163.197.277.24s.24.065.379.065c.104 0 .2-.008.286-.023.089-.016.157-.029.203-.042l.282 1.307c-.09.031-.217.064-.383.101-.164.037-.364.059-.601.065-.418.012-.795-.051-1.131-.189-.335-.142-.601-.36-.798-.656-.194-.295-.29-.665-.287-1.108zm6.366 8.933c-.45 0-.854-.08-1.215-.24-.357-.163-.64-.403-.849-.72-.206-.317-.309-.708-.309-1.173 0-.4.074-.731.221-.992.148-.262.35-.471.605-.628s.543-.276.863-.356c.323-.083.657-.143 1.002-.18.416-.043.753-.081 1.011-.115.259-.037.446-.092.563-.166.12-.077.18-.196.18-.356v-.027c0-.348-.103-.617-.309-.808s-.503-.286-.891-.286c-.409 0-.734.089-.974.267-.237.179-.397.39-.48.633l-1.56-.222c.123-.431.326-.791.609-1.08.283-.292.629-.511 1.039-.656.409-.147.861-.221 1.357-.221.341 0 .682.04 1.02.12.339.08.648.212.928.397.28.181.505.429.674.743.172.314.259.706.259 1.177v4.746h-1.607v-.974h-.055c-.102.197-.245.382-.43.554-.181.169-.411.306-.688.411-.273.101-.595.152-.964.152zm.434-1.228c.335 0 .626-.066.872-.198.246-.136.436-.314.568-.536.135-.221.203-.463.203-.725v-.835c-.052.043-.142.083-.268.12-.123.037-.261.069-.415.097-.154.027-.306.052-.457.074-.151.021-.282.04-.393.055-.249.034-.472.089-.669.166s-.352.185-.466.323c-.114.136-.171.311-.171.527 0 .307.112.54.337.697s.511.235.859.235zm10.451-4.132-1.523.167c-.043-.154-.119-.299-.226-.434-.105-.136-.247-.245-.425-.328-.179-.083-.397-.125-.656-.125-.347 0-.64.076-.877.226-.234.151-.349.347-.346.587-.003.206.072.374.226.503.157.129.416.235.776.318l1.209.259c.671.145 1.17.374 1.496.688.329.314.496.725.499 1.232-.003.447-.134.841-.393 1.182-.255.339-.611.603-1.066.794-.456.191-.979.286-1.57.286-.868 0-1.566-.181-2.096-.544-.529-.366-.844-.876-.946-1.528l1.63-.157c.073.32.23.561.47.725.241.163.553.244.938.244.397 0 .715-.081.955-.244.243-.164.365-.365.365-.605 0-.203-.079-.371-.235-.503-.154-.133-.394-.234-.721-.305l-1.209-.254c-.68-.142-1.184-.38-1.51-.716-.326-.338-.488-.766-.484-1.283-.004-.437.115-.816.355-1.136.243-.323.58-.572 1.011-.747.434-.179.934-.268 1.5-.268.831 0 1.485.177 1.962.531.48.354.777.832.891 1.435z" fill="#1e1e1e" fill-rule="nonzero"/><path d="m447.261 199 2.226 6.516h.09l2.227-6.516h1.304l-2.879 8h-1.394l-2.879-8zm10.589 5.512v-3.512h1.172v6h-1.149v-1.039h-.062c-.138.32-.36.587-.664.801-.303.211-.679.316-1.129.316-.386 0-.727-.085-1.024-.254-.294-.172-.526-.426-.695-.762-.167-.335-.25-.751-.25-1.246v-3.816h1.168v3.676c0 .409.113.734.34.976.226.243.52.364.882.364.219 0 .437-.055.653-.164.219-.11.4-.275.543-.497.146-.221.217-.502.215-.843zm5.206 2.609c-.591 0-1.1-.126-1.528-.379-.424-.255-.752-.613-.984-1.074-.229-.464-.344-1.007-.344-1.629 0-.615.115-1.156.344-1.625.232-.469.555-.835.969-1.098.416-.263.903-.394 1.461-.394.338 0 .666.056.984.168s.603.288.856.527c.252.24.451.551.597.934.146.38.219.842.219 1.386v.415h-4.77v-.875h3.625c0-.308-.062-.58-.187-.817-.125-.239-.301-.428-.527-.566-.224-.138-.487-.207-.789-.207-.329 0-.615.08-.86.242-.242.159-.43.367-.562.625-.131.255-.196.532-.196.832v.684c0 .401.071.742.211 1.023.144.281.343.496.598.644.255.146.553.219.894.219.222 0 .424-.031.606-.094.182-.065.34-.161.473-.289.132-.127.234-.285.304-.472l1.106.199c-.089.326-.248.611-.477.855-.226.243-.512.431-.855.567-.341.133-.731.199-1.168.199zm6.633-.121v-8h4.961v1.039h-3.754v2.438h3.398v1.035h-3.398v3.488zm6.155 0v-6h1.129v.953h.063c.109-.323.302-.577.578-.762.278-.187.593-.281.945-.281.073 0 .159.003.258.008.101.005.181.012.238.019v1.118c-.047-.013-.13-.028-.25-.043-.12-.019-.239-.028-.359-.028-.276 0-.522.059-.739.176-.213.115-.382.275-.507.481-.125.203-.188.435-.188.695v3.664zm6.413.121c-.562 0-1.053-.129-1.472-.387-.42-.257-.745-.618-.977-1.082-.232-.463-.348-1.005-.348-1.625 0-.622.116-1.166.348-1.632.232-.467.557-.829.977-1.086.419-.258.91-.387 1.472-.387.563 0 1.054.129 1.473.387.419.257.745.619.977 1.086.231.466.347 1.01.347 1.632 0 .62-.116 1.162-.347 1.625-.232.464-.558.825-.977 1.082-.419.258-.91.387-1.473.387zm.004-.98c.365 0 .667-.097.906-.289.24-.193.417-.45.532-.77.117-.32.176-.673.176-1.059 0-.382-.059-.734-.176-1.054-.115-.323-.292-.582-.532-.778-.239-.195-.541-.293-.906-.293-.367 0-.672.098-.914.293-.239.196-.418.455-.535.778-.115.32-.172.672-.172 1.054 0 .386.057.739.172 1.059.117.32.296.577.535.77.242.192.547.289.914.289zm5.144-2.704v3.563h-1.168v-6h1.121v.977h.074c.138-.318.354-.573.649-.766.297-.193.67-.289 1.121-.289.409 0 .767.086 1.074.258.307.169.546.422.715.757.169.336.254.752.254 1.247v3.816h-1.168v-3.676c0-.435-.114-.775-.34-1.019-.227-.248-.538-.371-.934-.371-.271 0-.511.058-.722.175-.209.118-.374.289-.496.516-.12.224-.18.495-.18.812zm8.086-2.437v.937h-3.277v-.937zm-2.399-1.438h1.168v5.676c0 .227.034.397.102.512.068.112.155.189.262.23.109.04.228.059.355.059.094 0 .176-.006.246-.019.071-.013.125-.024.164-.032l.211.965c-.067.026-.164.052-.289.078-.125.029-.281.045-.469.047-.307.005-.593-.049-.859-.164s-.48-.292-.644-.531c-.164-.24-.247-.541-.247-.903zm6.901 3.551v1.012h-3.547v-1.012zm4.022 4.008c-.592 0-1.101-.126-1.528-.379-.424-.255-.752-.613-.984-1.074-.229-.464-.344-1.007-.344-1.629 0-.615.115-1.156.344-1.625.232-.469.555-.835.969-1.098.416-.263.903-.394 1.461-.394.338 0 .666.056.984.168s.603.288.855.527c.253.24.452.551.598.934.146.38.219.842.219 1.386v.415h-4.77v-.875h3.625c0-.308-.062-.58-.187-.817-.125-.239-.301-.428-.528-.566-.224-.138-.487-.207-.789-.207-.328 0-.614.08-.859.242-.242.159-.43.367-.563.625-.13.255-.195.532-.195.832v.684c0 .401.07.742.211 1.023.143.281.343.496.598.644.255.146.553.219.894.219.222 0 .423-.031.606-.094.182-.065.34-.161.472-.289.133-.127.235-.285.305-.472l1.106.199c-.089.326-.248.611-.477.855-.227.243-.512.431-.855.567-.342.133-.731.199-1.168.199zm4.917-3.684v3.563h-1.168v-6h1.121v.977h.074c.138-.318.354-.573.648-.766.297-.193.671-.289 1.122-.289.408 0 .766.086 1.074.258.307.169.545.422.715.757.169.336.253.752.253 1.247v3.816h-1.167v-3.676c0-.435-.114-.775-.34-1.019-.227-.248-.538-.371-.934-.371-.271 0-.512.058-.723.175-.208.118-.373.289-.496.516-.119.224-.179.495-.179.812zm7.531 3.68c-.484 0-.917-.124-1.297-.371-.378-.25-.674-.605-.891-1.066-.213-.464-.32-1.02-.32-1.668 0-.649.108-1.203.324-1.664.219-.461.519-.814.899-1.059s.811-.367 1.293-.367c.372 0 .672.062.898.187.229.123.406.266.531.43.128.164.227.309.297.434h.071v-2.973h1.168v8h-1.141v-.934h-.098c-.07.128-.172.274-.304.438-.131.164-.31.307-.539.43-.23.122-.526.183-.891.183zm.258-.996c.336 0 .62-.088.851-.266.235-.179.412-.428.532-.746.122-.317.183-.687.183-1.109 0-.417-.06-.781-.18-1.094-.119-.312-.295-.556-.527-.73-.232-.175-.518-.262-.859-.262-.352 0-.645.091-.879.274-.235.182-.412.43-.531.746-.118.315-.176.67-.176 1.066 0 .401.06.762.18 1.082.119.32.296.574.531.762.237.185.528.277.875.277z" fill="#1e1e1e" fill-rule="nonzero"/><path d="m519 220c0-1.932-1.568-3.5-3.5-3.5h-65c-1.932 0-3.5 1.568-3.5 3.5v16c0 1.932 1.568 3.5 3.5 3.5h65c1.932 0 3.5-1.568 3.5-3.5z" fill="none" stroke="#9747ff"/><path d="m455.333 231v-5.818h2.074c.453 0 .828.082 1.125.247s.52.39.668.676c.147.284.221.604.221.96 0 .358-.075.68-.224.966-.148.284-.371.51-.671.676-.297.165-.671.248-1.122.248h-1.426v-.745h1.347c.286 0 .518-.049.696-.148.178-.1.308-.236.392-.409.083-.172.125-.368.125-.588 0-.219-.042-.414-.125-.585-.084-.17-.215-.304-.395-.4-.178-.097-.413-.145-.705-.145h-1.102v5.065zm7.579-5.818v5.818h-.85v-5.818zm4.092 5.915c-.276 0-.526-.052-.75-.154-.223-.104-.4-.255-.531-.452-.129-.196-.193-.438-.193-.724 0-.246.047-.449.142-.608s.222-.285.383-.378.341-.163.54-.21.402-.083.608-.108c.261-.03.474-.055.636-.074.163-.021.282-.054.356-.099.073-.046.11-.12.11-.222v-.02c0-.248-.07-.44-.21-.576-.138-.137-.345-.205-.619-.205-.286 0-.512.063-.676.19-.163.125-.276.265-.338.418l-.799-.182c.095-.265.233-.479.415-.642.184-.165.395-.284.634-.358.238-.076.489-.113.752-.113.175 0 .359.02.554.062.197.04.381.114.552.222.172.108.313.262.423.463.11.199.165.457.165.775v2.898h-.83v-.597h-.034c-.055.11-.137.218-.247.324s-.251.194-.423.264c-.173.071-.379.106-.62.106zm.185-.682c.235 0 .435-.047.602-.139.169-.093.297-.214.384-.364.089-.152.133-.314.133-.486v-.562c-.03.03-.089.058-.176.085-.085.024-.183.046-.293.065-.109.017-.216.033-.321.048-.104.014-.191.025-.261.035-.165.02-.315.055-.452.105-.134.049-.242.12-.324.213-.079.091-.119.212-.119.363 0 .211.078.37.233.478.155.106.353.159.594.159zm6.817-3.779v.682h-2.384v-.682zm-1.744-1.045h.849v4.128c0 .165.025.289.074.372.049.081.113.137.19.168.08.028.166.042.259.042.068 0 .128-.005.179-.014.051-.01.091-.017.119-.023l.153.702c-.049.019-.119.038-.21.057-.091.021-.204.032-.341.034-.223.004-.431-.036-.625-.119-.193-.084-.349-.213-.468-.387-.12-.174-.179-.393-.179-.656zm5.633 5.506c-.276 0-.526-.052-.75-.154-.223-.104-.4-.255-.531-.452-.129-.196-.193-.438-.193-.724 0-.246.047-.449.142-.608s.223-.285.384-.378.34-.163.539-.21.402-.083.608-.108c.262-.03.474-.055.637-.074.163-.021.281-.054.355-.099.074-.046.111-.12.111-.222v-.02c0-.248-.07-.44-.211-.576-.138-.137-.344-.205-.619-.205-.286 0-.511.063-.676.19-.163.125-.276.265-.338.418l-.798-.182c.094-.265.232-.479.414-.642.184-.165.395-.284.634-.358.238-.076.489-.113.753-.113.174 0 .359.02.554.062.197.04.38.114.551.222.172.108.313.262.423.463.11.199.165.457.165.775v2.898h-.83v-.597h-.034c-.055.11-.137.218-.247.324s-.251.194-.423.264c-.173.071-.379.106-.62.106zm.185-.682c.235 0 .436-.047.602-.139.169-.093.297-.214.384-.364.089-.152.133-.314.133-.486v-.562c-.03.03-.089.058-.176.085-.085.024-.182.046-.292.065-.11.017-.217.033-.321.048-.105.014-.192.025-.262.035-.164.02-.315.055-.451.105-.135.049-.243.12-.324.213-.08.091-.12.212-.12.363 0 .211.078.37.233.478.156.106.354.159.594.159zm6.857-3.779v.682h-2.466v-.682zm-1.79 4.364v-4.869c0-.273.06-.499.179-.679.119-.182.278-.318.475-.407.197-.09.411-.136.642-.136.17 0 .316.014.437.043.121.026.211.051.27.074l-.199.687c-.04-.011-.091-.025-.153-.04-.063-.017-.139-.025-.228-.025-.206 0-.354.051-.443.153-.087.102-.13.25-.13.443v4.756zm6.013.088c-.41 0-.767-.094-1.071-.281-.305-.188-.542-.45-.711-.787-.168-.337-.253-.731-.253-1.182 0-.453.085-.848.253-1.187.169-.339.406-.603.711-.79.304-.188.661-.281 1.071-.281.409 0 .766.093 1.071.281.305.187.541.451.71.79.168.339.253.734.253 1.187 0 .451-.085.845-.253 1.182-.169.337-.405.599-.71.787-.305.187-.662.281-1.071.281zm.002-.713c.266 0 .485-.07.659-.21.175-.14.304-.327.387-.56.085-.233.128-.489.128-.77 0-.278-.043-.534-.128-.767-.083-.235-.212-.423-.387-.565-.174-.142-.393-.213-.659-.213-.267 0-.488.071-.664.213-.175.142-.304.33-.39.565-.083.233-.125.489-.125.767 0 .281.042.537.125.77.086.233.215.42.39.56.176.14.397.21.664.21zm4.66.625v-4.364h.821v.694h.045c.08-.235.22-.42.421-.554.202-.137.432-.205.687-.205.053 0 .116.002.188.006.074.003.131.008.173.014v.812c-.034-.009-.095-.019-.182-.031-.087-.013-.174-.02-.261-.02-.201 0-.38.043-.537.128-.155.083-.278.2-.369.35-.091.147-.137.316-.137.505v2.665zm4.75 0v-4.364h.815v.711h.054c.091-.241.24-.428.446-.563.207-.136.454-.204.742-.204.292 0 .536.068.733.204.199.136.346.324.44.563h.046c.104-.233.27-.419.497-.557.227-.14.498-.21.812-.21.396 0 .719.124.969.372.252.248.378.622.378 1.122v2.926h-.849v-2.847c0-.295-.081-.509-.242-.642-.161-.132-.353-.199-.577-.199-.276 0-.491.086-.645.256-.153.169-.23.386-.23.651v2.781h-.846v-2.901c0-.236-.074-.427-.222-.571s-.34-.216-.577-.216c-.161 0-.309.043-.446.128-.134.084-.243.2-.326.35-.082.149-.122.323-.122.52v2.69zm10.02.097c-.276 0-.526-.052-.75-.154-.223-.104-.4-.255-.531-.452-.129-.196-.193-.438-.193-.724 0-.246.047-.449.142-.608s.222-.285.383-.378.341-.163.54-.21.402-.083.608-.108c.262-.03.474-.055.637-.074.162-.021.281-.054.355-.099.074-.046.11-.12.11-.222v-.02c0-.248-.07-.44-.21-.576-.138-.137-.344-.205-.619-.205-.286 0-.511.063-.676.19-.163.125-.276.265-.338.418l-.799-.182c.095-.265.233-.479.415-.642.184-.165.395-.284.634-.358.238-.076.489-.113.753-.113.174 0 .358.02.554.062.196.04.38.114.551.222.172.108.313.262.423.463.11.199.165.457.165.775v2.898h-.83v-.597h-.034c-.055.11-.137.218-.247.324s-.251.194-.423.264c-.173.071-.379.106-.62.106zm.185-.682c.235 0 .436-.047.602-.139.169-.093.297-.214.384-.364.089-.152.133-.314.133-.486v-.562c-.03.03-.089.058-.176.085-.085.024-.183.046-.292.065-.11.017-.217.033-.321.048-.105.014-.192.025-.262.035-.165.02-.315.055-.452.105-.134.049-.242.12-.323.213-.08.091-.12.212-.12.363 0 .211.078.37.233.478.156.106.353.159.594.159z" fill="#9747ff" fill-rule="nonzero"/><path d="m423.347 254.863v3.137h-.993v-7.82h2.535c.351.007.682.062.993.166.316.104.591.254.828.451.236.197.422.441.558.731.14.29.21.623.21.999s-.07.709-.21.999c-.136.286-.322.528-.558.725-.237.197-.512.347-.828.451-.311.104-.642.158-.993.161zm0-.816h1.542c.229-.004.44-.04.634-.108.193-.071.361-.171.504-.3.144-.129.255-.285.333-.468.083-.186.124-.397.124-.633 0-.237-.041-.45-.124-.64-.078-.189-.188-.35-.327-.483-.143-.132-.313-.234-.51-.306-.194-.072-.405-.109-.634-.113h-1.542zm9.23 3.953-.059-.8c-.193.286-.435.51-.725.671-.29.158-.625.236-1.004.236-.305 0-.58-.046-.827-.139-.247-.097-.459-.246-.634-.446-.176-.201-.312-.455-.408-.763-.093-.311-.14-.684-.14-1.117v-3.454h.994v3.465c0 .315.025.576.075.784s.125.372.225.494c.101.125.222.213.366.263.146.05.315.076.505.076.222 0 .42-.026.596-.076.175-.053.327-.127.456-.22.108-.075.201-.165.28-.268.082-.108.15-.224.204-.35v-4.168h.999v5.812zm-.945-7.96h1.203l-1.439 1.429h-.752zm8.527 5.119c0 .254-.02.499-.06.736-.035.232-.089.451-.161.655-.096.268-.223.51-.381.725-.154.211-.34.387-.559.526-.157.097-.331.172-.521.226-.186.054-.388.08-.607.08-.25 0-.479-.03-.687-.091-.204-.061-.389-.148-.553-.263-.079-.057-.154-.12-.226-.188-.071-.068-.14-.143-.204-.226l-.048.661h-.913v-8.25h.993v3.062c.083-.104.174-.197.274-.28.1-.086.208-.159.322-.22.144-.075.301-.132.473-.172.172-.039.358-.059.559-.059.25 0 .481.034.693.102.211.068.402.163.574.285.154.114.292.254.414.419.122.161.229.342.322.542.097.226.17.476.22.752.05.272.076.561.076.865zm-.994-.113c0-.183-.013-.36-.038-.532-.021-.175-.055-.34-.102-.494-.064-.19-.148-.363-.252-.521s-.231-.281-.382-.371c-.103-.064-.22-.114-.349-.15s-.272-.054-.429-.054c-.172 0-.33.024-.473.07-.143.043-.27.104-.381.183-.115.082-.217.179-.307.29-.085.107-.159.225-.22.354v2.541c.065.129.14.249.226.36.089.107.191.202.306.284.115.083.243.147.387.194.143.043.3.064.472.064.165 0 .315-.02.452-.059.136-.043.257-.104.365-.183.143-.1.263-.227.36-.381.096-.154.173-.326.231-.516.046-.143.08-.297.102-.461.021-.165.032-.333.032-.505zm2.709-5.296h2.971v7.391h1.896v.859h-4.867v-.859h1.977v-6.526h-1.977zm6.486 2.438h2.97v4.953h1.896v.859h-4.866v-.859h1.976v-4.088h-1.976zm1.848-1.525c0-.086.012-.166.037-.242.029-.075.072-.139.129-.193.047-.047.106-.082.177-.107.075-.029.16-.043.253-.043s.175.014.247.043c.071.025.13.06.177.107.057.05.1.113.129.188s.043.158.043.247c0 .161-.05.295-.15.403-.101.107-.249.161-.446.161-.201 0-.351-.054-.451-.161-.097-.108-.145-.242-.145-.403zm6.958 6.639c.179 0 .352-.029.521-.086.172-.057.324-.138.456-.242.133-.1.238-.218.317-.354.082-.14.125-.29.129-.452h.94c-.004.258-.072.505-.204.742-.129.232-.303.437-.521.612-.219.179-.469.322-.752.43-.283.104-.578.155-.886.155-.441 0-.826-.078-1.155-.236-.33-.157-.603-.371-.822-.639-.222-.265-.388-.571-.499-.919-.111-.35-.167-.719-.167-1.106v-.226c0-.383.056-.75.167-1.101s.277-.66.499-.929c.219-.265.492-.476.822-.634.329-.157.714-.236 1.155-.236.343 0 .658.056.945.167.29.107.541.254.752.44.208.19.371.414.489.671.118.258.177.534.177.828h-.94c-.004-.176-.043-.341-.118-.495-.072-.157-.17-.295-.296-.413-.125-.118-.275-.211-.451-.279-.172-.069-.358-.103-.558-.103-.308 0-.568.063-.779.188-.208.122-.376.282-.505.478-.129.201-.222.425-.279.672-.054.247-.081.496-.081.746v.226c0 .254.027.507.081.757.057.247.15.469.279.666.125.201.292.364.499.489.212.122.473.183.785.183zm3.73-2.261c0-.419.061-.808.182-1.166.122-.362.298-.675.527-.94.225-.265.501-.473.827-.623.326-.154.693-.231 1.101-.231.412 0 .781.077 1.106.231.33.15.609.358.838.623.226.265.4.578.521.94.122.358.183.747.183 1.166v.118c0 .419-.061.807-.183 1.165-.121.358-.295.67-.521.935-.229.265-.506.472-.832.623-.326.15-.693.225-1.101.225-.412 0-.783-.075-1.112-.225-.326-.151-.602-.358-.827-.623-.229-.265-.405-.577-.527-.935-.121-.358-.182-.746-.182-1.165zm.993.118c0 .286.034.56.102.821.068.258.172.486.312.683.136.197.308.352.516.467.207.114.449.172.725.172.272 0 .51-.058.714-.172.208-.115.381-.27.521-.467.136-.197.238-.425.306-.683.068-.261.102-.535.102-.821v-.118c0-.283-.036-.554-.107-.812-.068-.261-.17-.49-.306-.687-.14-.197-.314-.353-.521-.467-.204-.118-.444-.178-.72-.178s-.516.06-.72.178c-.204.114-.374.27-.51.467-.14.197-.244.426-.312.687-.068.258-.102.529-.102.812zm13.24-.333c0-.512.039-.994.118-1.445.082-.451.192-.87.328-1.257.136-.383.291-.734.467-1.053.179-.318.367-.601.564-.848.193-.247.388-.459.585-.634.197-.176.385-.313.564-.414l.21.656c-.115.086-.231.189-.349.311-.115.122-.228.258-.339.408-.164.233-.322.507-.472.822-.151.312-.276.654-.376 1.026-.097.337-.172.707-.226 1.112-.054.404-.081.839-.081 1.305v.075c0 .448.026.867.076 1.257s.118.75.204 1.08c.093.333.2.641.322.923.122.287.249.543.381.768.136.215.276.405.419.57.147.168.294.311.441.429l-.21.607c-.179-.1-.369-.238-.569-.413-.197-.172-.392-.383-.586-.634-.196-.247-.384-.53-.563-.849-.176-.315-.33-.666-.462-1.052-.136-.383-.246-.801-.328-1.252-.079-.451-.118-.933-.118-1.445zm9.595 1.197c0-.239-.055-.442-.166-.606-.108-.165-.247-.305-.419-.419-.172-.111-.362-.205-.57-.28-.204-.075-.401-.143-.59-.204-.276-.089-.557-.197-.844-.322-.283-.129-.54-.283-.773-.462-.237-.183-.43-.397-.58-.645-.147-.25-.22-.544-.22-.88 0-.337.073-.638.22-.903.15-.265.345-.489.585-.671.24-.183.512-.321.817-.414.304-.096.61-.145.918-.145.34 0 .668.058.983.172.315.111.594.269.838.473.243.204.438.451.585.741s.224.614.231.972h-1.02c-.029-.225-.084-.43-.167-.612-.082-.186-.191-.346-.327-.478-.136-.133-.299-.235-.489-.306-.186-.076-.398-.113-.634-.113-.19 0-.376.027-.559.08-.179.054-.338.135-.478.242-.143.108-.257.24-.343.398-.083.157-.124.34-.124.547.004.226.061.418.172.575.111.154.252.285.424.392.169.108.351.197.548.269.201.071.389.134.564.188.29.089.58.199.87.327.29.126.555.287.795.484.237.182.426.406.57.671.146.265.22.571.22.919 0 .351-.079.657-.237.918-.154.262-.354.478-.601.65-.247.176-.527.308-.838.398-.312.085-.623.128-.935.128-.372 0-.739-.062-1.101-.188-.358-.125-.669-.306-.934-.542-.237-.204-.425-.442-.564-.714-.136-.276-.21-.582-.22-.919h1.015c.032.244.098.46.198.65.101.186.23.344.387.473.158.132.339.232.543.3.207.065.433.097.676.097.194 0 .384-.023.57-.07.19-.05.358-.127.505-.231.146-.1.266-.227.359-.381.094-.158.14-.344.14-.559zm4.96 2.084c-.408 0-.784-.069-1.128-.209-.34-.14-.632-.335-.875-.586-.244-.25-.434-.547-.57-.891s-.204-.718-.204-1.123v-.225c0-.469.076-.888.226-1.257.15-.372.351-.688.601-.945.248-.255.529-.45.844-.586.318-.136.644-.204.977-.204.419 0 .784.073 1.096.22.315.143.576.342.784.596.208.258.362.561.462.908.104.348.156.723.156 1.128v.446h-4.152v.038c.025.282.081.531.166.746.09.215.212.405.366.569.157.176.347.314.569.414s.467.15.736.15c.354 0 .669-.071.945-.214.276-.144.505-.333.688-.57l.607.473c-.194.293-.484.555-.87.784-.384.226-.858.338-1.424.338zm-.129-5.21c-.2 0-.39.038-.569.113-.179.072-.34.178-.483.317-.144.143-.265.319-.366.527-.096.204-.164.44-.204.708h3.126v-.048c0-.179-.034-.37-.102-.575-.068-.207-.163-.386-.285-.537-.121-.15-.275-.272-.461-.365-.183-.093-.402-.14-.656-.14zm7.855-.816c.183 0 .373.013.57.038.2.025.351.059.451.102l-.134.972c-.194-.043-.378-.074-.554-.091-.172-.022-.352-.033-.542-.033-.244 0-.464.031-.661.092-.197.057-.369.143-.515.257-.133.101-.249.224-.35.371-.096.143-.177.304-.241.483v3.728h-.999v-5.812h.945l.043.779.005.145c.237-.318.52-.569.849-.752.333-.186.711-.279 1.133-.279zm4.66 5.919-2.391-5.812h1.021l1.665 4.383.091.36.097-.36 1.627-4.383h1.016l-2.369 5.812zm4.659-5.812h2.97v4.953h1.896v.859h-4.866v-.859h1.976v-4.088h-1.976zm1.848-1.525c0-.086.012-.166.037-.242.029-.075.072-.139.129-.193.047-.047.106-.082.177-.107.075-.029.16-.043.253-.043s.175.014.247.043c.071.025.131.06.177.107.057.05.1.113.129.188s.043.158.043.247c0 .161-.05.295-.15.403-.101.107-.249.161-.446.161-.201 0-.351-.054-.451-.161-.097-.108-.145-.242-.145-.403zm6.958 6.639c.179 0 .352-.029.521-.086.172-.057.324-.138.456-.242.133-.1.238-.218.317-.354.082-.14.125-.29.129-.452h.94c-.004.258-.072.505-.204.742-.129.232-.303.437-.521.612-.219.179-.469.322-.752.43-.283.104-.578.155-.886.155-.441 0-.826-.078-1.155-.236-.33-.157-.603-.371-.822-.639-.222-.265-.388-.571-.499-.919-.111-.35-.167-.719-.167-1.106v-.226c0-.383.056-.75.167-1.101s.277-.66.499-.929c.219-.265.492-.476.822-.634.329-.157.714-.236 1.155-.236.343 0 .659.056.945.167.29.107.541.254.752.44.208.19.371.414.489.671.118.258.177.534.177.828h-.94c-.004-.176-.043-.341-.118-.495-.072-.157-.17-.295-.296-.413-.125-.118-.275-.211-.451-.279-.172-.069-.358-.103-.558-.103-.308 0-.568.063-.779.188-.208.122-.376.282-.505.478-.129.201-.222.425-.279.672-.054.247-.081.496-.081.746v.226c0 .254.027.507.081.757.057.247.15.469.279.666.125.201.292.364.499.489.212.122.473.183.785.183zm4.165-5.114h2.97v4.953h1.896v.859h-4.866v-.859h1.976v-4.088h-1.976zm1.847-1.525c0-.086.013-.166.038-.242.029-.075.072-.139.129-.193.046-.047.106-.082.177-.107.075-.029.16-.043.253-.043s.175.014.247.043c.071.025.13.06.177.107.057.05.1.113.129.188.028.075.043.158.043.247 0 .161-.05.295-.151.403-.1.107-.248.161-.445.161-.201 0-.351-.054-.452-.161-.096-.108-.145-.242-.145-.403zm4.203 4.378c0-.419.061-.808.183-1.166.122-.362.297-.675.526-.94.226-.265.501-.473.827-.623.326-.154.693-.231 1.101-.231.412 0 .781.077 1.107.231.329.15.609.358.838.623.225.265.399.578.521.94.121.358.182.747.182 1.166v.118c0 .419-.061.807-.182 1.165-.122.358-.296.67-.521.935-.229.265-.507.472-.833.623-.326.15-.693.225-1.101.225-.412 0-.782-.075-1.112-.225-.326-.151-.601-.358-.827-.623-.229-.265-.404-.577-.526-.935s-.183-.746-.183-1.165zm.994.118c0 .286.034.56.102.821.068.258.172.486.311.683.136.197.308.352.516.467.208.114.449.172.725.172.272 0 .51-.058.714-.172.208-.115.382-.27.521-.467.137-.197.239-.425.307-.683.068-.261.102-.535.102-.821v-.118c0-.283-.036-.554-.108-.812-.068-.261-.17-.49-.306-.687-.14-.197-.313-.353-.521-.467-.204-.118-.444-.178-.72-.178-.275 0-.515.06-.719.178-.204.114-.375.27-.511.467-.139.197-.243.426-.311.687-.068.258-.102.529-.102.812zm9.633 1.299c0-.118-.024-.223-.07-.316-.047-.097-.125-.185-.236-.264-.111-.078-.258-.15-.441-.214-.182-.068-.41-.129-.682-.183-.333-.068-.637-.15-.913-.247-.272-.097-.505-.213-.698-.349-.197-.133-.349-.288-.457-.468-.107-.182-.161-.393-.161-.633 0-.237.056-.457.167-.661.111-.208.266-.388.467-.542.2-.154.438-.276.714-.366.279-.089.586-.134.919-.134.358 0 .68.047.966.14.287.093.53.222.731.386.2.165.354.358.462.581.111.218.166.454.166.708h-.993c0-.125-.033-.247-.097-.365-.064-.121-.154-.229-.269-.322-.114-.093-.254-.168-.419-.226-.161-.057-.343-.086-.547-.086-.212 0-.398.024-.559.07-.158.047-.288.109-.392.188-.107.079-.188.17-.242.274-.053.104-.08.211-.08.322 0 .115.021.217.064.307.043.089.118.17.226.241.104.072.243.136.419.194.179.057.404.112.676.166.358.075.679.163.962.263.283.097.521.213.714.349.194.14.34.301.441.484.103.183.155.394.155.634 0 .257-.059.492-.177.703-.114.212-.276.392-.483.543-.208.15-.457.267-.747.349s-.607.123-.951.123c-.393 0-.744-.051-1.052-.155-.308-.108-.568-.249-.779-.425-.215-.172-.38-.372-.494-.601-.111-.229-.167-.468-.167-.715h.994c.014.205.068.376.161.516.097.14.217.252.36.338.14.086.295.147.467.183s.342.054.51.054c.265 0 .496-.031.693-.092.197-.064.351-.152.462-.263.068-.068.12-.143.156-.225.036-.083.054-.17.054-.264zm6.249-1.579c0 .512-.041.994-.124 1.445-.078.451-.186.869-.322 1.252-.136.386-.294.737-.473 1.052-.175.319-.359.602-.553.849-.197.251-.396.462-.596.634-.197.175-.385.313-.564.413l-.209-.607c.15-.111.302-.254.456-.429.154-.176.301-.378.441-.607.132-.233.259-.496.381-.79.125-.29.227-.608.306-.956.082-.322.145-.669.188-1.042.047-.376.07-.777.07-1.203v-.075c0-.483-.031-.922-.091-1.316-.058-.394-.122-.729-.194-1.004-.104-.394-.229-.747-.376-1.058-.147-.316-.297-.59-.451-.822-.118-.183-.24-.342-.365-.478-.126-.14-.247-.258-.365-.355l.209-.607c.179.101.369.238.569.414.201.175.398.387.591.634.201.254.389.537.564.848.176.312.33.663.462 1.053.129.376.235.784.317 1.225.086.436.129.929.129 1.477z" fill="#9747ff" fill-rule="nonzero"/><path d="m240.939 182.439c-.585.586-.585 1.536 0 2.122l9.546 9.546c.586.585 1.536.585 2.122 0 .585-.586.585-1.536 0-2.122l-8.486-8.485 8.486-8.485c.585-.586.585-1.536 0-2.122-.586-.585-1.536-.585-2.122 0zm164.122 2.122c.585-.586.585-1.536 0-2.122l-9.546-9.546c-.586-.585-1.536-.585-2.122 0-.585.586-.585 1.536 0 2.122l8.486 8.485-8.486 8.485c-.585.586-.585 1.536 0 2.122.586.585 1.536.585 2.122 0zm-163.061.439h162v-3h-162z" fill="#b3b3b3" fill-rule="nonzero"/></svg>