<?xml version="1.0" encoding="UTF-8" standalone="no"?>
<!DOCTYPE svg PUBLIC "-//W3C//DTD SVG 1.1//EN" "http://www.w3.org/Graphics/SVG/1.1/DTD/svg11.dtd">
<svg width="100%" height="100%" viewBox="0 0 442 442" version="1.1" xmlns="http://www.w3.org/2000/svg" xmlns:xlink="http://www.w3.org/1999/xlink" xml:space="preserve" xmlns:serif="http://www.serif.com/" style="fill-rule:evenodd;clip-rule:evenodd;stroke-linejoin:round;stroke-miterlimit:2;">
    <g transform="matrix(542.383,721.29,721.29,-542.383,25.3685,-39.2126)">
        <path d="M0.104,0.066C0.1,0.061 0.101,0.053 0.106,0.05L0.202,-0.022L0.13,-0.118C0.126,-0.123 0.127,-0.13 0.132,-0.134L0.295,-0.257C0.3,-0.26 0.307,-0.259 0.311,-0.254L0.383,-0.158L0.479,-0.231C0.484,-0.234 0.491,-0.233 0.495,-0.228L0.617,-0.066C0.621,-0.061 0.62,-0.053 0.615,-0.05L0.519,0.022L0.591,0.118C0.595,0.123 0.594,0.13 0.589,0.134L0.426,0.257C0.421,0.26 0.414,0.259 0.41,0.254L0.338,0.158L0.242,0.231C0.237,0.234 0.23,0.233 0.226,0.228L0.104,0.066Z" style="fill:url(#_Linear1);fill-rule:nonzero;"/>
    </g>
    <g transform="matrix(4.16667,0,0,4.16667,190.099,204.182)">
        <path d="M0,24.327C-0.761,23.582 -1.317,22.829 -1.832,22.045C-2.177,21.521 -2.511,20.989 -2.849,20.46C-3.214,19.887 -3.567,19.307 -3.943,18.742C-4.678,17.638 -5.494,16.602 -6.613,15.857C-7.615,15.189 -8.632,14.544 -9.645,13.892C-10.976,13.035 -12.309,12.179 -13.343,10.95C-13.96,10.218 -14.429,9.403 -14.698,8.475C-15.011,7.397 -15.093,6.313 -14.845,5.212C-14.597,4.106 -14.089,3.131 -13.31,2.311C-12.939,1.918 -12.539,1.543 -12.11,1.216C-11.263,0.569 -10.305,0.13 -9.279,-0.158C-8.461,-0.388 -7.627,-0.521 -6.778,-0.507C-6.271,-0.498 -5.765,-0.445 -5.26,-0.396C-4.412,-0.314 -3.568,-0.351 -2.743,-0.552C-1.718,-0.802 -0.702,-1.088 0.313,-1.375C1.259,-1.642 2.206,-1.897 3.187,-2.001C4.13,-2.101 5.06,-2.022 5.966,-1.75C6.571,-1.567 7.173,-1.362 7.751,-1.108C8.223,-0.901 8.669,-0.625 9.105,-0.345C9.973,0.214 10.688,0.951 11.341,1.738C11.967,2.493 12.426,3.357 12.784,4.273C13.075,5.016 13.28,5.779 13.389,6.568C13.513,7.456 13.454,8.34 13.249,9.204C13.019,10.175 12.74,11.134 12.471,12.096C12.169,13.179 11.861,14.259 11.777,15.389C11.729,16.027 11.808,16.654 11.87,17.285C11.974,18.334 11.886,19.368 11.638,20.394C11.459,21.132 11.186,21.831 10.84,22.501C10.535,23.092 10.149,23.63 9.703,24.124C9.111,24.778 8.441,25.337 7.65,25.731C6.85,26.13 6.001,26.361 5.101,26.391C4.018,26.428 2.985,26.214 2.01,25.756C1.22,25.384 0.511,24.885 0,24.327" style="fill:white;fill-rule:nonzero;"/>
    </g>
    <g transform="matrix(4.16667,0,0,4.16667,260.526,216.926)">
        <path d="M0,-6.732C0.989,-7.715 1.945,-8.363 3.028,-8.809C4.185,-9.286 5.387,-9.524 6.644,-9.337C7.734,-9.176 8.67,-8.718 9.388,-7.864C9.858,-7.305 10.137,-6.65 10.255,-5.934C10.454,-4.729 10.226,-3.584 9.729,-2.482C9.237,-1.389 8.547,-0.435 7.66,0.367C6.755,1.187 5.739,1.837 4.581,2.246C3.511,2.623 2.413,2.792 1.281,2.606C-0.084,2.381 -1.15,1.705 -1.822,0.477C-2.256,-0.317 -2.381,-1.185 -2.298,-2.079C-2.184,-3.317 -1.734,-4.432 -1.042,-5.46C-0.692,-5.98 -0.291,-6.452 0,-6.732" style="fill:white;fill-rule:nonzero;"/>
    </g>
    <g transform="matrix(4.16667,0,0,4.16667,253.18,148.161)">
        <path d="M0,7.888C-0.834,8.733 -1.795,9.39 -2.902,9.818C-3.919,10.212 -4.97,10.393 -6.058,10.187C-7.007,10.008 -7.81,9.571 -8.442,8.818C-9.066,8.075 -9.36,7.212 -9.443,6.265C-9.545,5.109 -9.311,4.01 -8.87,2.943C-8.414,1.839 -7.736,0.884 -6.918,0.031C-6.553,-0.349 -6.123,-0.673 -5.696,-0.987C-5.006,-1.493 -4.247,-1.876 -3.423,-2.118C-2.341,-2.435 -1.249,-2.505 -0.172,-2.134C0.852,-1.781 1.618,-1.11 2.102,-0.126C2.602,0.891 2.695,1.961 2.532,3.061C2.25,4.963 1.331,6.535 0,7.888" style="fill:white;fill-rule:nonzero;"/>
    </g>
    <g transform="matrix(4.16667,0,0,4.16667,294.8,247.798)">
        <path d="M0,6.28C-0.848,7.088 -1.82,7.744 -2.923,8.208C-4.056,8.684 -5.232,8.919 -6.461,8.845C-7.368,8.79 -8.232,8.563 -9,8.062C-10.039,7.383 -10.683,6.439 -10.845,5.193C-10.966,4.264 -10.798,3.379 -10.447,2.517C-10.086,1.631 -9.539,0.867 -8.89,0.179C-8.356,-0.387 -7.736,-0.856 -7.067,-1.259C-6.368,-1.679 -5.631,-2.01 -4.848,-2.234C-3.689,-2.566 -2.516,-2.639 -1.329,-2.377C-0.389,-2.169 0.426,-1.742 1.081,-1.029C1.759,-0.291 2.092,0.585 2.117,1.583C2.143,2.589 1.871,3.519 1.399,4.4C1.029,5.091 0.557,5.702 0,6.28" style="fill:white;fill-rule:nonzero;"/>
    </g>
    <g transform="matrix(4.16667,0,0,4.16667,168.08,183.492)">
        <path d="M0,-8.8C0.82,-9.587 1.735,-10.228 2.821,-10.594C3.715,-10.895 4.628,-10.986 5.551,-10.755C6.577,-10.498 7.377,-9.908 7.942,-9.016C8.75,-7.74 8.881,-6.337 8.662,-4.88C8.491,-3.748 8.087,-2.702 7.498,-1.722C6.78,-0.526 5.856,0.466 4.666,1.198C3.659,1.818 2.568,2.186 1.372,2.123C0.441,2.073 -0.391,1.757 -1.095,1.115C-2.143,0.16 -2.557,-1.06 -2.625,-2.431C-2.678,-3.507 -2.476,-4.54 -2.101,-5.547C-1.701,-6.621 -1.094,-7.565 -0.362,-8.435C-0.252,-8.566 -0.121,-8.679 0,-8.8" style="fill:white;fill-rule:nonzero;"/>
    </g>
    <defs>
        <linearGradient id="_Linear1" x1="0" y1="0" x2="1" y2="0" gradientUnits="userSpaceOnUse" gradientTransform="matrix(1,0,0,1,0,-4.62479e-06)"><stop offset="0" style="stop-color:rgb(241,91,80);stop-opacity:1"/><stop offset="0.52" style="stop-color:rgb(130,71,154);stop-opacity:1"/><stop offset="1" style="stop-color:rgb(238,70,137);stop-opacity:1"/></linearGradient>
    </defs>
</svg>
